<?xml version="1.0" encoding="utf-8" standalone="no"?>
<!DOCTYPE svg PUBLIC "-//W3C//DTD SVG 1.1//EN"
  "http://www.w3.org/Graphics/SVG/1.1/DTD/svg11.dtd">
<svg xmlns:xlink="http://www.w3.org/1999/xlink" width="864pt" height="216pt" viewBox="0 0 864 216" xmlns="http://www.w3.org/2000/svg" version="1.1">
 <metadata>
  <rdf:RDF xmlns:dc="http://purl.org/dc/elements/1.1/" xmlns:cc="http://creativecommons.org/ns#" xmlns:rdf="http://www.w3.org/1999/02/22-rdf-syntax-ns#">
   <cc:Work>
    <dc:type rdf:resource="http://purl.org/dc/dcmitype/StillImage"/>
    <dc:date>2025-07-10T23:33:18.706843</dc:date>
    <dc:format>image/svg+xml</dc:format>
    <dc:creator>
     <cc:Agent>
      <dc:title>Matplotlib v3.10.1, https://matplotlib.org/</dc:title>
     </cc:Agent>
    </dc:creator>
   </cc:Work>
  </rdf:RDF>
 </metadata>
 <defs>
  <style type="text/css">*{stroke-linejoin: round; stroke-linecap: butt}</style>
 </defs>
 <g id="figure_1">
  <g id="patch_1">
   <path d="M 0 216 
L 864 216 
L 864 0 
L 0 0 
z
" style="fill: #ffffff"/>
  </g>
  <g id="axes_1">
   <g id="patch_2">
    <path d="M 108 166.804138 
L 223.448276 166.804138 
L 223.448276 51.355862 
L 108 51.355862 
z
" style="fill: #f0f8ff"/>
   </g>
   <g id="matplotlib.axis_1">
    <g id="xtick_1">
     <g id="line2d_1">
      <path d="M 115.212009 166.804138 
L 115.212009 51.355862 
" clip-path="url(#p4ee81fc845)" style="fill: none; stroke: #b0b0b0; stroke-width: 0.8; stroke-linecap: square"/>
     </g>
     <g id="line2d_2">
      <defs>
       <path id="mb5b278b628" d="M 0 0 
L 0 3.5 
" style="stroke: #000000; stroke-width: 0.8"/>
      </defs>
      <g>
       <use xlink:href="#mb5b278b628" x="115.212009" y="166.804138" style="stroke: #000000; stroke-width: 0.8"/>
      </g>
     </g>
     <g id="text_1">
      <!-- 0 -->
      <g transform="translate(112.712009 180.747888) scale(0.1 -0.1)">
       <defs>
        <path id="TimesNewRomanPSMT-30" d="M 231 2094 
Q 231 2819 450 3342 
Q 669 3866 1031 4122 
Q 1313 4325 1613 4325 
Q 2100 4325 2488 3828 
Q 2972 3213 2972 2159 
Q 2972 1422 2759 906 
Q 2547 391 2217 158 
Q 1888 -75 1581 -75 
Q 975 -75 572 641 
Q 231 1244 231 2094 
z
M 844 2016 
Q 844 1141 1059 588 
Q 1238 122 1591 122 
Q 1759 122 1940 273 
Q 2122 425 2216 781 
Q 2359 1319 2359 2297 
Q 2359 3022 2209 3506 
Q 2097 3866 1919 4016 
Q 1791 4119 1609 4119 
Q 1397 4119 1231 3928 
Q 1006 3669 925 3112 
Q 844 2556 844 2016 
z
" transform="scale(0.015625)"/>
       </defs>
       <use xlink:href="#TimesNewRomanPSMT-30"/>
      </g>
     </g>
    </g>
    <g id="xtick_2">
     <g id="line2d_3">
      <path d="M 126.436927 166.804138 
L 126.436927 51.355862 
" clip-path="url(#p4ee81fc845)" style="fill: none; stroke: #b0b0b0; stroke-width: 0.8; stroke-linecap: square"/>
     </g>
     <g id="line2d_4">
      <g>
       <use xlink:href="#mb5b278b628" x="126.436927" y="166.804138" style="stroke: #000000; stroke-width: 0.8"/>
      </g>
     </g>
     <g id="text_2">
      <!-- 1 -->
      <g transform="translate(123.936927 180.747888) scale(0.1 -0.1)">
       <defs>
        <path id="TimesNewRomanPSMT-31" d="M 750 3822 
L 1781 4325 
L 1884 4325 
L 1884 747 
Q 1884 391 1914 303 
Q 1944 216 2037 169 
Q 2131 122 2419 116 
L 2419 0 
L 825 0 
L 825 116 
Q 1125 122 1212 167 
Q 1300 213 1334 289 
Q 1369 366 1369 747 
L 1369 3034 
Q 1369 3497 1338 3628 
Q 1316 3728 1258 3775 
Q 1200 3822 1119 3822 
Q 1003 3822 797 3725 
L 750 3822 
z
" transform="scale(0.015625)"/>
       </defs>
       <use xlink:href="#TimesNewRomanPSMT-31"/>
      </g>
     </g>
    </g>
    <g id="xtick_3">
     <g id="line2d_5">
      <path d="M 137.661844 166.804138 
L 137.661844 51.355862 
" clip-path="url(#p4ee81fc845)" style="fill: none; stroke: #b0b0b0; stroke-width: 0.8; stroke-linecap: square"/>
     </g>
     <g id="line2d_6">
      <g>
       <use xlink:href="#mb5b278b628" x="137.661844" y="166.804138" style="stroke: #000000; stroke-width: 0.8"/>
      </g>
     </g>
     <g id="text_3">
      <!-- 2 -->
      <g transform="translate(135.161844 180.747888) scale(0.1 -0.1)">
       <defs>
        <path id="TimesNewRomanPSMT-32" d="M 2934 816 
L 2638 0 
L 138 0 
L 138 116 
Q 1241 1122 1691 1759 
Q 2141 2397 2141 2925 
Q 2141 3328 1894 3587 
Q 1647 3847 1303 3847 
Q 991 3847 742 3664 
Q 494 3481 375 3128 
L 259 3128 
Q 338 3706 661 4015 
Q 984 4325 1469 4325 
Q 1984 4325 2329 3994 
Q 2675 3663 2675 3213 
Q 2675 2891 2525 2569 
Q 2294 2063 1775 1497 
Q 997 647 803 472 
L 1909 472 
Q 2247 472 2383 497 
Q 2519 522 2628 598 
Q 2738 675 2819 816 
L 2934 816 
z
" transform="scale(0.015625)"/>
       </defs>
       <use xlink:href="#TimesNewRomanPSMT-32"/>
      </g>
     </g>
    </g>
    <g id="xtick_4">
     <g id="line2d_7">
      <path d="M 148.886762 166.804138 
L 148.886762 51.355862 
" clip-path="url(#p4ee81fc845)" style="fill: none; stroke: #b0b0b0; stroke-width: 0.8; stroke-linecap: square"/>
     </g>
     <g id="line2d_8">
      <g>
       <use xlink:href="#mb5b278b628" x="148.886762" y="166.804138" style="stroke: #000000; stroke-width: 0.8"/>
      </g>
     </g>
     <g id="text_4">
      <!-- 3 -->
      <g transform="translate(146.386762 180.747888) scale(0.1 -0.1)">
       <defs>
        <path id="TimesNewRomanPSMT-33" d="M 325 3431 
Q 506 3859 782 4092 
Q 1059 4325 1472 4325 
Q 1981 4325 2253 3994 
Q 2459 3747 2459 3466 
Q 2459 3003 1878 2509 
Q 2269 2356 2469 2072 
Q 2669 1788 2669 1403 
Q 2669 853 2319 450 
Q 1863 -75 997 -75 
Q 569 -75 414 31 
Q 259 138 259 259 
Q 259 350 332 419 
Q 406 488 509 488 
Q 588 488 669 463 
Q 722 447 909 348 
Q 1097 250 1169 231 
Q 1284 197 1416 197 
Q 1734 197 1970 444 
Q 2206 691 2206 1028 
Q 2206 1275 2097 1509 
Q 2016 1684 1919 1775 
Q 1784 1900 1550 2001 
Q 1316 2103 1072 2103 
L 972 2103 
L 972 2197 
Q 1219 2228 1467 2375 
Q 1716 2522 1828 2728 
Q 1941 2934 1941 3181 
Q 1941 3503 1739 3701 
Q 1538 3900 1238 3900 
Q 753 3900 428 3381 
L 325 3431 
z
" transform="scale(0.015625)"/>
       </defs>
       <use xlink:href="#TimesNewRomanPSMT-33"/>
      </g>
     </g>
    </g>
    <g id="xtick_5">
     <g id="line2d_9">
      <path d="M 160.111679 166.804138 
L 160.111679 51.355862 
" clip-path="url(#p4ee81fc845)" style="fill: none; stroke: #b0b0b0; stroke-width: 0.8; stroke-linecap: square"/>
     </g>
     <g id="line2d_10">
      <g>
       <use xlink:href="#mb5b278b628" x="160.111679" y="166.804138" style="stroke: #000000; stroke-width: 0.8"/>
      </g>
     </g>
     <g id="text_5">
      <!-- 4 -->
      <g transform="translate(157.611679 180.747888) scale(0.1 -0.1)">
       <defs>
        <path id="TimesNewRomanPSMT-34" d="M 2978 1563 
L 2978 1119 
L 2409 1119 
L 2409 0 
L 1894 0 
L 1894 1119 
L 100 1119 
L 100 1519 
L 2066 4325 
L 2409 4325 
L 2409 1563 
L 2978 1563 
z
M 1894 1563 
L 1894 3666 
L 406 1563 
L 1894 1563 
z
" transform="scale(0.015625)"/>
       </defs>
       <use xlink:href="#TimesNewRomanPSMT-34"/>
      </g>
     </g>
    </g>
    <g id="xtick_6">
     <g id="line2d_11">
      <path d="M 171.336597 166.804138 
L 171.336597 51.355862 
" clip-path="url(#p4ee81fc845)" style="fill: none; stroke: #b0b0b0; stroke-width: 0.8; stroke-linecap: square"/>
     </g>
     <g id="line2d_12">
      <g>
       <use xlink:href="#mb5b278b628" x="171.336597" y="166.804138" style="stroke: #000000; stroke-width: 0.8"/>
      </g>
     </g>
     <g id="text_6">
      <!-- 5 -->
      <g transform="translate(168.836597 180.747888) scale(0.1 -0.1)">
       <defs>
        <path id="TimesNewRomanPSMT-35" d="M 2778 4238 
L 2534 3706 
L 1259 3706 
L 981 3138 
Q 1809 3016 2294 2522 
Q 2709 2097 2709 1522 
Q 2709 1188 2573 903 
Q 2438 619 2231 419 
Q 2025 219 1772 97 
Q 1413 -75 1034 -75 
Q 653 -75 479 54 
Q 306 184 306 341 
Q 306 428 378 495 
Q 450 563 559 563 
Q 641 563 702 538 
Q 763 513 909 409 
Q 1144 247 1384 247 
Q 1750 247 2026 523 
Q 2303 800 2303 1197 
Q 2303 1581 2056 1914 
Q 1809 2247 1375 2428 
Q 1034 2569 447 2591 
L 1259 4238 
L 2778 4238 
z
" transform="scale(0.015625)"/>
       </defs>
       <use xlink:href="#TimesNewRomanPSMT-35"/>
      </g>
     </g>
    </g>
    <g id="xtick_7">
     <g id="line2d_13">
      <path d="M 182.561514 166.804138 
L 182.561514 51.355862 
" clip-path="url(#p4ee81fc845)" style="fill: none; stroke: #b0b0b0; stroke-width: 0.8; stroke-linecap: square"/>
     </g>
     <g id="line2d_14">
      <g>
       <use xlink:href="#mb5b278b628" x="182.561514" y="166.804138" style="stroke: #000000; stroke-width: 0.8"/>
      </g>
     </g>
     <g id="text_7">
      <!-- 6 -->
      <g transform="translate(180.061514 180.747888) scale(0.1 -0.1)">
       <defs>
        <path id="TimesNewRomanPSMT-36" d="M 2869 4325 
L 2869 4209 
Q 2456 4169 2195 4045 
Q 1934 3922 1679 3669 
Q 1425 3416 1258 3105 
Q 1091 2794 978 2366 
Q 1428 2675 1881 2675 
Q 2316 2675 2634 2325 
Q 2953 1975 2953 1425 
Q 2953 894 2631 456 
Q 2244 -75 1606 -75 
Q 1172 -75 869 213 
Q 275 772 275 1663 
Q 275 2231 503 2743 
Q 731 3256 1154 3653 
Q 1578 4050 1965 4187 
Q 2353 4325 2688 4325 
L 2869 4325 
z
M 925 2138 
Q 869 1716 869 1456 
Q 869 1156 980 804 
Q 1091 453 1309 247 
Q 1469 100 1697 100 
Q 1969 100 2183 356 
Q 2397 613 2397 1088 
Q 2397 1622 2184 2012 
Q 1972 2403 1581 2403 
Q 1463 2403 1327 2353 
Q 1191 2303 925 2138 
z
" transform="scale(0.015625)"/>
       </defs>
       <use xlink:href="#TimesNewRomanPSMT-36"/>
      </g>
     </g>
    </g>
    <g id="xtick_8">
     <g id="line2d_15">
      <path d="M 193.786432 166.804138 
L 193.786432 51.355862 
" clip-path="url(#p4ee81fc845)" style="fill: none; stroke: #b0b0b0; stroke-width: 0.8; stroke-linecap: square"/>
     </g>
     <g id="line2d_16">
      <g>
       <use xlink:href="#mb5b278b628" x="193.786432" y="166.804138" style="stroke: #000000; stroke-width: 0.8"/>
      </g>
     </g>
     <g id="text_8">
      <!-- 7 -->
      <g transform="translate(191.286432 180.747888) scale(0.1 -0.1)">
       <defs>
        <path id="TimesNewRomanPSMT-37" d="M 644 4238 
L 2916 4238 
L 2916 4119 
L 1503 -88 
L 1153 -88 
L 2419 3728 
L 1253 3728 
Q 900 3728 750 3644 
Q 488 3500 328 3200 
L 238 3234 
L 644 4238 
z
" transform="scale(0.015625)"/>
       </defs>
       <use xlink:href="#TimesNewRomanPSMT-37"/>
      </g>
     </g>
    </g>
    <g id="xtick_9">
     <g id="line2d_17">
      <path d="M 205.011349 166.804138 
L 205.011349 51.355862 
" clip-path="url(#p4ee81fc845)" style="fill: none; stroke: #b0b0b0; stroke-width: 0.8; stroke-linecap: square"/>
     </g>
     <g id="line2d_18">
      <g>
       <use xlink:href="#mb5b278b628" x="205.011349" y="166.804138" style="stroke: #000000; stroke-width: 0.8"/>
      </g>
     </g>
     <g id="text_9">
      <!-- 8 -->
      <g transform="translate(202.511349 180.747888) scale(0.1 -0.1)">
       <defs>
        <path id="TimesNewRomanPSMT-38" d="M 1228 2134 
Q 725 2547 579 2797 
Q 434 3047 434 3316 
Q 434 3728 753 4026 
Q 1072 4325 1600 4325 
Q 2113 4325 2425 4047 
Q 2738 3769 2738 3413 
Q 2738 3175 2569 2928 
Q 2400 2681 1866 2347 
Q 2416 1922 2594 1678 
Q 2831 1359 2831 1006 
Q 2831 559 2490 242 
Q 2150 -75 1597 -75 
Q 994 -75 656 303 
Q 388 606 388 966 
Q 388 1247 577 1523 
Q 766 1800 1228 2134 
z
M 1719 2469 
Q 2094 2806 2194 3001 
Q 2294 3197 2294 3444 
Q 2294 3772 2109 3958 
Q 1925 4144 1606 4144 
Q 1288 4144 1088 3959 
Q 888 3775 888 3528 
Q 888 3366 970 3203 
Q 1053 3041 1206 2894 
L 1719 2469 
z
M 1375 2016 
Q 1116 1797 991 1539 
Q 866 1281 866 981 
Q 866 578 1086 336 
Q 1306 94 1647 94 
Q 1984 94 2187 284 
Q 2391 475 2391 747 
Q 2391 972 2272 1150 
Q 2050 1481 1375 2016 
z
" transform="scale(0.015625)"/>
       </defs>
       <use xlink:href="#TimesNewRomanPSMT-38"/>
      </g>
     </g>
    </g>
    <g id="xtick_10">
     <g id="line2d_19">
      <path d="M 216.236266 166.804138 
L 216.236266 51.355862 
" clip-path="url(#p4ee81fc845)" style="fill: none; stroke: #b0b0b0; stroke-width: 0.8; stroke-linecap: square"/>
     </g>
     <g id="line2d_20">
      <g>
       <use xlink:href="#mb5b278b628" x="216.236266" y="166.804138" style="stroke: #000000; stroke-width: 0.8"/>
      </g>
     </g>
     <g id="text_10">
      <!-- 9 -->
      <g transform="translate(213.736266 180.747888) scale(0.1 -0.1)">
       <defs>
        <path id="TimesNewRomanPSMT-39" d="M 338 -88 
L 338 28 
Q 744 34 1094 217 
Q 1444 400 1770 856 
Q 2097 1313 2225 1859 
Q 1734 1544 1338 1544 
Q 891 1544 572 1889 
Q 253 2234 253 2806 
Q 253 3363 572 3797 
Q 956 4325 1575 4325 
Q 2097 4325 2469 3894 
Q 2925 3359 2925 2575 
Q 2925 1869 2578 1258 
Q 2231 647 1613 244 
Q 1109 -88 516 -88 
L 338 -88 
z
M 2275 2091 
Q 2331 2497 2331 2741 
Q 2331 3044 2228 3395 
Q 2125 3747 1936 3934 
Q 1747 4122 1506 4122 
Q 1228 4122 1018 3872 
Q 809 3622 809 3128 
Q 809 2469 1088 2097 
Q 1291 1828 1588 1828 
Q 1731 1828 1928 1897 
Q 2125 1966 2275 2091 
z
" transform="scale(0.015625)"/>
       </defs>
       <use xlink:href="#TimesNewRomanPSMT-39"/>
      </g>
     </g>
    </g>
   </g>
   <g id="matplotlib.axis_2">
    <g id="ytick_1">
     <g id="line2d_21">
      <defs>
       <path id="m27f6ff18df" d="M 0 0 
L -3.5 0 
" style="stroke: #000000; stroke-width: 0.8"/>
      </defs>
      <g>
       <use xlink:href="#m27f6ff18df" x="108" y="166.804138" style="stroke: #000000; stroke-width: 0.8"/>
      </g>
     </g>
     <g id="text_11">
      <!-- 0.8 -->
      <g transform="translate(88.5 170.276013) scale(0.1 -0.1)">
       <defs>
        <path id="TimesNewRomanPSMT-2e" d="M 800 606 
Q 947 606 1047 504 
Q 1147 403 1147 259 
Q 1147 116 1045 14 
Q 944 -88 800 -88 
Q 656 -88 554 14 
Q 453 116 453 259 
Q 453 406 554 506 
Q 656 606 800 606 
z
" transform="scale(0.015625)"/>
       </defs>
       <use xlink:href="#TimesNewRomanPSMT-30"/>
       <use xlink:href="#TimesNewRomanPSMT-2e" transform="translate(50 0)"/>
       <use xlink:href="#TimesNewRomanPSMT-38" transform="translate(75 0)"/>
      </g>
     </g>
    </g>
    <g id="ytick_2">
     <g id="line2d_22">
      <g>
       <use xlink:href="#m27f6ff18df" x="108" y="156.30884" style="stroke: #000000; stroke-width: 0.8"/>
      </g>
     </g>
     <g id="text_12">
      <!-- 1.0 -->
      <g transform="translate(88.5 159.780715) scale(0.1 -0.1)">
       <use xlink:href="#TimesNewRomanPSMT-31"/>
       <use xlink:href="#TimesNewRomanPSMT-2e" transform="translate(50 0)"/>
       <use xlink:href="#TimesNewRomanPSMT-30" transform="translate(75 0)"/>
      </g>
     </g>
    </g>
    <g id="ytick_3">
     <g id="line2d_23">
      <g>
       <use xlink:href="#m27f6ff18df" x="108" y="130.070596" style="stroke: #000000; stroke-width: 0.8"/>
      </g>
     </g>
     <g id="text_13">
      <!-- 1.5 -->
      <g transform="translate(88.5 133.542471) scale(0.1 -0.1)">
       <use xlink:href="#TimesNewRomanPSMT-31"/>
       <use xlink:href="#TimesNewRomanPSMT-2e" transform="translate(50 0)"/>
       <use xlink:href="#TimesNewRomanPSMT-35" transform="translate(75 0)"/>
      </g>
     </g>
    </g>
    <g id="ytick_4">
     <g id="line2d_24">
      <g>
       <use xlink:href="#m27f6ff18df" x="108" y="103.832351" style="stroke: #000000; stroke-width: 0.8"/>
      </g>
     </g>
     <g id="text_14">
      <!-- 2.0 -->
      <g transform="translate(88.5 107.304226) scale(0.1 -0.1)">
       <use xlink:href="#TimesNewRomanPSMT-32"/>
       <use xlink:href="#TimesNewRomanPSMT-2e" transform="translate(50 0)"/>
       <use xlink:href="#TimesNewRomanPSMT-30" transform="translate(75 0)"/>
      </g>
     </g>
    </g>
    <g id="ytick_5">
     <g id="line2d_25">
      <g>
       <use xlink:href="#m27f6ff18df" x="108" y="77.594107" style="stroke: #000000; stroke-width: 0.8"/>
      </g>
     </g>
     <g id="text_15">
      <!-- 2.5 -->
      <g transform="translate(88.5 81.065982) scale(0.1 -0.1)">
       <use xlink:href="#TimesNewRomanPSMT-32"/>
       <use xlink:href="#TimesNewRomanPSMT-2e" transform="translate(50 0)"/>
       <use xlink:href="#TimesNewRomanPSMT-35" transform="translate(75 0)"/>
      </g>
     </g>
    </g>
    <g id="ytick_6">
     <g id="line2d_26">
      <g>
       <use xlink:href="#m27f6ff18df" x="108" y="51.355862" style="stroke: #000000; stroke-width: 0.8"/>
      </g>
     </g>
     <g id="text_16">
      <!-- 3.0 -->
      <g transform="translate(88.5 54.827737) scale(0.1 -0.1)">
       <use xlink:href="#TimesNewRomanPSMT-33"/>
       <use xlink:href="#TimesNewRomanPSMT-2e" transform="translate(50 0)"/>
       <use xlink:href="#TimesNewRomanPSMT-30" transform="translate(75 0)"/>
      </g>
     </g>
    </g>
    <g id="text_17">
     <!-- Normalized travel time -->
     <g transform="translate(82.360937 155.450312) rotate(-90) scale(0.1 -0.1)">
      <defs>
       <path id="TimesNewRomanPSMT-4e" d="M -84 4238 
L 1066 4238 
L 3656 1059 
L 3656 3503 
Q 3656 3894 3569 3991 
Q 3453 4122 3203 4122 
L 3056 4122 
L 3056 4238 
L 4531 4238 
L 4531 4122 
L 4381 4122 
Q 4113 4122 4000 3959 
Q 3931 3859 3931 3503 
L 3931 -69 
L 3819 -69 
L 1025 3344 
L 1025 734 
Q 1025 344 1109 247 
Q 1228 116 1475 116 
L 1625 116 
L 1625 0 
L 150 0 
L 150 116 
L 297 116 
Q 569 116 681 278 
Q 750 378 750 734 
L 750 3681 
Q 566 3897 470 3965 
Q 375 4034 191 4094 
Q 100 4122 -84 4122 
L -84 4238 
z
" transform="scale(0.015625)"/>
       <path id="TimesNewRomanPSMT-6f" d="M 1600 2947 
Q 2250 2947 2644 2453 
Q 2978 2031 2978 1484 
Q 2978 1100 2793 706 
Q 2609 313 2286 112 
Q 1963 -88 1566 -88 
Q 919 -88 538 428 
Q 216 863 216 1403 
Q 216 1797 411 2186 
Q 606 2575 925 2761 
Q 1244 2947 1600 2947 
z
M 1503 2744 
Q 1338 2744 1170 2645 
Q 1003 2547 900 2300 
Q 797 2053 797 1666 
Q 797 1041 1045 587 
Q 1294 134 1700 134 
Q 2003 134 2200 384 
Q 2397 634 2397 1244 
Q 2397 2006 2069 2444 
Q 1847 2744 1503 2744 
z
" transform="scale(0.015625)"/>
       <path id="TimesNewRomanPSMT-72" d="M 1038 2947 
L 1038 2303 
Q 1397 2947 1775 2947 
Q 1947 2947 2059 2842 
Q 2172 2738 2172 2600 
Q 2172 2478 2090 2393 
Q 2009 2309 1897 2309 
Q 1788 2309 1652 2417 
Q 1516 2525 1450 2525 
Q 1394 2525 1328 2463 
Q 1188 2334 1038 2041 
L 1038 669 
Q 1038 431 1097 309 
Q 1138 225 1241 169 
Q 1344 113 1538 113 
L 1538 0 
L 72 0 
L 72 113 
Q 291 113 397 181 
Q 475 231 506 341 
Q 522 394 522 644 
L 522 1753 
Q 522 2253 501 2348 
Q 481 2444 426 2487 
Q 372 2531 291 2531 
Q 194 2531 72 2484 
L 41 2597 
L 906 2947 
L 1038 2947 
z
" transform="scale(0.015625)"/>
       <path id="TimesNewRomanPSMT-6d" d="M 1050 2338 
Q 1363 2650 1419 2697 
Q 1559 2816 1721 2881 
Q 1884 2947 2044 2947 
Q 2313 2947 2506 2790 
Q 2700 2634 2766 2338 
Q 3088 2713 3309 2830 
Q 3531 2947 3766 2947 
Q 3994 2947 4170 2830 
Q 4347 2713 4450 2447 
Q 4519 2266 4519 1878 
L 4519 647 
Q 4519 378 4559 278 
Q 4591 209 4675 161 
Q 4759 113 4950 113 
L 4950 0 
L 3538 0 
L 3538 113 
L 3597 113 
Q 3781 113 3884 184 
Q 3956 234 3988 344 
Q 4000 397 4000 647 
L 4000 1878 
Q 4000 2228 3916 2372 
Q 3794 2572 3525 2572 
Q 3359 2572 3192 2489 
Q 3025 2406 2788 2181 
L 2781 2147 
L 2788 2013 
L 2788 647 
Q 2788 353 2820 281 
Q 2853 209 2943 161 
Q 3034 113 3253 113 
L 3253 0 
L 1806 0 
L 1806 113 
Q 2044 113 2133 169 
Q 2222 225 2256 338 
Q 2272 391 2272 647 
L 2272 1878 
Q 2272 2228 2169 2381 
Q 2031 2581 1784 2581 
Q 1616 2581 1450 2491 
Q 1191 2353 1050 2181 
L 1050 647 
Q 1050 366 1089 281 
Q 1128 197 1204 155 
Q 1281 113 1516 113 
L 1516 0 
L 100 0 
L 100 113 
Q 297 113 375 155 
Q 453 197 493 289 
Q 534 381 534 647 
L 534 1741 
Q 534 2213 506 2350 
Q 484 2453 437 2492 
Q 391 2531 309 2531 
Q 222 2531 100 2484 
L 53 2597 
L 916 2947 
L 1050 2947 
L 1050 2338 
z
" transform="scale(0.015625)"/>
       <path id="TimesNewRomanPSMT-61" d="M 1822 413 
Q 1381 72 1269 19 
Q 1100 -59 909 -59 
Q 613 -59 420 144 
Q 228 347 228 678 
Q 228 888 322 1041 
Q 450 1253 767 1440 
Q 1084 1628 1822 1897 
L 1822 2009 
Q 1822 2438 1686 2597 
Q 1550 2756 1291 2756 
Q 1094 2756 978 2650 
Q 859 2544 859 2406 
L 866 2225 
Q 866 2081 792 2003 
Q 719 1925 600 1925 
Q 484 1925 411 2006 
Q 338 2088 338 2228 
Q 338 2497 613 2722 
Q 888 2947 1384 2947 
Q 1766 2947 2009 2819 
Q 2194 2722 2281 2516 
Q 2338 2381 2338 1966 
L 2338 994 
Q 2338 584 2353 492 
Q 2369 400 2405 369 
Q 2441 338 2488 338 
Q 2538 338 2575 359 
Q 2641 400 2828 588 
L 2828 413 
Q 2478 -56 2159 -56 
Q 2006 -56 1915 50 
Q 1825 156 1822 413 
z
M 1822 616 
L 1822 1706 
Q 1350 1519 1213 1441 
Q 966 1303 859 1153 
Q 753 1003 753 825 
Q 753 600 887 451 
Q 1022 303 1197 303 
Q 1434 303 1822 616 
z
" transform="scale(0.015625)"/>
       <path id="TimesNewRomanPSMT-6c" d="M 1184 4444 
L 1184 647 
Q 1184 378 1223 290 
Q 1263 203 1344 158 
Q 1425 113 1647 113 
L 1647 0 
L 244 0 
L 244 113 
Q 441 113 512 153 
Q 584 194 625 287 
Q 666 381 666 647 
L 666 3247 
Q 666 3731 644 3842 
Q 622 3953 573 3993 
Q 525 4034 450 4034 
Q 369 4034 244 3984 
L 191 4094 
L 1044 4444 
L 1184 4444 
z
" transform="scale(0.015625)"/>
       <path id="TimesNewRomanPSMT-69" d="M 928 4444 
Q 1059 4444 1151 4351 
Q 1244 4259 1244 4128 
Q 1244 3997 1151 3903 
Q 1059 3809 928 3809 
Q 797 3809 703 3903 
Q 609 3997 609 4128 
Q 609 4259 701 4351 
Q 794 4444 928 4444 
z
M 1188 2947 
L 1188 647 
Q 1188 378 1227 289 
Q 1266 200 1342 156 
Q 1419 113 1622 113 
L 1622 0 
L 231 0 
L 231 113 
Q 441 113 512 153 
Q 584 194 626 287 
Q 669 381 669 647 
L 669 1750 
Q 669 2216 641 2353 
Q 619 2453 572 2492 
Q 525 2531 444 2531 
Q 356 2531 231 2484 
L 188 2597 
L 1050 2947 
L 1188 2947 
z
" transform="scale(0.015625)"/>
       <path id="TimesNewRomanPSMT-7a" d="M 2688 878 
L 2653 0 
L 128 0 
L 128 113 
L 2028 2644 
L 1091 2644 
Q 788 2644 694 2605 
Q 600 2566 541 2456 
Q 456 2300 444 2069 
L 319 2069 
L 338 2863 
L 2738 2863 
L 2738 2747 
L 819 209 
L 1863 209 
Q 2191 209 2308 264 
Q 2425 319 2497 456 
Q 2547 556 2581 878 
L 2688 878 
z
" transform="scale(0.015625)"/>
       <path id="TimesNewRomanPSMT-65" d="M 681 1784 
Q 678 1147 991 784 
Q 1303 422 1725 422 
Q 2006 422 2214 576 
Q 2422 731 2563 1106 
L 2659 1044 
Q 2594 616 2278 264 
Q 1963 -88 1488 -88 
Q 972 -88 605 314 
Q 238 716 238 1394 
Q 238 2128 614 2539 
Q 991 2950 1559 2950 
Q 2041 2950 2350 2633 
Q 2659 2316 2659 1784 
L 681 1784 
z
M 681 1966 
L 2006 1966 
Q 1991 2241 1941 2353 
Q 1863 2528 1708 2628 
Q 1553 2728 1384 2728 
Q 1125 2728 920 2526 
Q 716 2325 681 1966 
z
" transform="scale(0.015625)"/>
       <path id="TimesNewRomanPSMT-64" d="M 2222 322 
Q 2013 103 1813 7 
Q 1613 -88 1381 -88 
Q 913 -88 563 304 
Q 213 697 213 1313 
Q 213 1928 600 2439 
Q 988 2950 1597 2950 
Q 1975 2950 2222 2709 
L 2222 3238 
Q 2222 3728 2198 3840 
Q 2175 3953 2125 3993 
Q 2075 4034 2000 4034 
Q 1919 4034 1784 3984 
L 1744 4094 
L 2597 4444 
L 2738 4444 
L 2738 1134 
Q 2738 631 2761 520 
Q 2784 409 2836 365 
Q 2888 322 2956 322 
Q 3041 322 3181 375 
L 3216 266 
L 2366 -88 
L 2222 -88 
L 2222 322 
z
M 2222 541 
L 2222 2016 
Q 2203 2228 2109 2403 
Q 2016 2578 1861 2667 
Q 1706 2756 1559 2756 
Q 1284 2756 1069 2509 
Q 784 2184 784 1559 
Q 784 928 1059 592 
Q 1334 256 1672 256 
Q 1956 256 2222 541 
z
" transform="scale(0.015625)"/>
       <path id="TimesNewRomanPSMT-20" transform="scale(0.015625)"/>
       <path id="TimesNewRomanPSMT-74" d="M 1031 3803 
L 1031 2863 
L 1700 2863 
L 1700 2644 
L 1031 2644 
L 1031 788 
Q 1031 509 1111 412 
Q 1191 316 1316 316 
Q 1419 316 1516 380 
Q 1613 444 1666 569 
L 1788 569 
Q 1678 263 1478 108 
Q 1278 -47 1066 -47 
Q 922 -47 784 33 
Q 647 113 581 261 
Q 516 409 516 719 
L 516 2644 
L 63 2644 
L 63 2747 
Q 234 2816 414 2980 
Q 594 3144 734 3369 
Q 806 3488 934 3803 
L 1031 3803 
z
" transform="scale(0.015625)"/>
       <path id="TimesNewRomanPSMT-76" d="M 53 2863 
L 1400 2863 
L 1400 2747 
L 1313 2747 
Q 1191 2747 1127 2687 
Q 1063 2628 1063 2528 
Q 1063 2419 1128 2269 
L 1794 688 
L 2463 2328 
Q 2534 2503 2534 2594 
Q 2534 2638 2509 2666 
Q 2475 2713 2422 2730 
Q 2369 2747 2206 2747 
L 2206 2863 
L 3141 2863 
L 3141 2747 
Q 2978 2734 2916 2681 
Q 2806 2588 2719 2369 
L 1703 -88 
L 1575 -88 
L 553 2328 
Q 484 2497 421 2570 
Q 359 2644 263 2694 
Q 209 2722 53 2747 
L 53 2863 
z
" transform="scale(0.015625)"/>
      </defs>
      <use xlink:href="#TimesNewRomanPSMT-4e"/>
      <use xlink:href="#TimesNewRomanPSMT-6f" transform="translate(72.216797 0)"/>
      <use xlink:href="#TimesNewRomanPSMT-72" transform="translate(122.216797 0)"/>
      <use xlink:href="#TimesNewRomanPSMT-6d" transform="translate(155.517578 0)"/>
      <use xlink:href="#TimesNewRomanPSMT-61" transform="translate(233.300781 0)"/>
      <use xlink:href="#TimesNewRomanPSMT-6c" transform="translate(277.685547 0)"/>
      <use xlink:href="#TimesNewRomanPSMT-69" transform="translate(305.46875 0)"/>
      <use xlink:href="#TimesNewRomanPSMT-7a" transform="translate(333.251953 0)"/>
      <use xlink:href="#TimesNewRomanPSMT-65" transform="translate(377.636719 0)"/>
      <use xlink:href="#TimesNewRomanPSMT-64" transform="translate(422.021484 0)"/>
      <use xlink:href="#TimesNewRomanPSMT-20" transform="translate(472.021484 0)"/>
      <use xlink:href="#TimesNewRomanPSMT-74" transform="translate(497.021484 0)"/>
      <use xlink:href="#TimesNewRomanPSMT-72" transform="translate(524.804688 0)"/>
      <use xlink:href="#TimesNewRomanPSMT-61" transform="translate(558.105469 0)"/>
      <use xlink:href="#TimesNewRomanPSMT-76" transform="translate(602.490234 0)"/>
      <use xlink:href="#TimesNewRomanPSMT-65" transform="translate(652.490234 0)"/>
      <use xlink:href="#TimesNewRomanPSMT-6c" transform="translate(696.875 0)"/>
      <use xlink:href="#TimesNewRomanPSMT-20" transform="translate(724.658203 0)"/>
      <use xlink:href="#TimesNewRomanPSMT-74" transform="translate(749.658203 0)"/>
      <use xlink:href="#TimesNewRomanPSMT-69" transform="translate(777.441406 0)"/>
      <use xlink:href="#TimesNewRomanPSMT-6d" transform="translate(805.224609 0)"/>
      <use xlink:href="#TimesNewRomanPSMT-65" transform="translate(883.007812 0)"/>
     </g>
    </g>
   </g>
   <g id="line2d_27">
    <path d="M 108 156.30884 
L 223.448276 156.30884 
" clip-path="url(#p4ee81fc845)" style="fill: none; stroke: #000000; stroke-linecap: square"/>
   </g>
   <g id="patch_3">
    <path d="M 115.212009 105.775925 
L 117.17637 111.023574 
L 115.773255 111.023574 
L 115.773255 156.30884 
L 114.650764 156.30884 
L 114.650764 111.023574 
L 113.247649 111.023574 
z
" clip-path="url(#p4ee81fc845)" style="opacity: 0.8; stroke: #000000; stroke-linejoin: miter"/>
   </g>
   <g id="patch_4">
    <path d="M 126.436927 136.403965 
L 128.401287 141.651614 
L 126.998173 141.651614 
L 126.998173 156.30884 
L 125.875681 156.30884 
L 125.875681 141.651614 
L 124.472566 141.651614 
z
" clip-path="url(#p4ee81fc845)" style="opacity: 0.8; stroke: #000000; stroke-linejoin: miter"/>
   </g>
   <g id="patch_5">
    <path d="M 137.661844 133.219185 
L 139.626205 138.466834 
L 138.22309 138.466834 
L 138.22309 156.30884 
L 137.100598 156.30884 
L 137.100598 138.466834 
L 135.697484 138.466834 
z
" clip-path="url(#p4ee81fc845)" style="opacity: 0.8; stroke: #000000; stroke-linejoin: miter"/>
   </g>
   <g id="patch_6">
    <path clip-path="url(#p4ee81fc845)" style="opacity: 0.8; stroke: #000000; stroke-linejoin: miter"/>
   </g>
   <g id="patch_7">
    <path clip-path="url(#p4ee81fc845)" style="opacity: 0.8; stroke: #000000; stroke-linejoin: miter"/>
   </g>
   <g id="patch_8">
    <path d="M 171.336597 135.851904 
L 173.300957 141.099553 
L 171.897843 141.099553 
L 171.897843 156.30884 
L 170.775351 156.30884 
L 170.775351 141.099553 
L 169.372236 141.099553 
z
" clip-path="url(#p4ee81fc845)" style="opacity: 0.8; stroke: #000000; stroke-linejoin: miter"/>
   </g>
   <g id="patch_9">
    <path d="M 182.561514 136.741336 
L 184.525875 141.988985 
L 183.12276 141.988985 
L 183.12276 156.30884 
L 182.000268 156.30884 
L 182.000268 141.988985 
L 180.597154 141.988985 
z
" clip-path="url(#p4ee81fc845)" style="opacity: 0.8; stroke: #000000; stroke-linejoin: miter"/>
   </g>
   <g id="patch_10">
    <path d="M 193.786432 135.729825 
L 195.750792 140.977474 
L 194.347677 140.977474 
L 194.347677 156.30884 
L 193.225186 156.30884 
L 193.225186 140.977474 
L 191.822071 140.977474 
z
" clip-path="url(#p4ee81fc845)" style="opacity: 0.8; stroke: #000000; stroke-linejoin: miter"/>
   </g>
   <g id="patch_11">
    <path d="M 205.011349 137.787726 
L 206.97571 143.035375 
L 205.572595 143.035375 
L 205.572595 156.30884 
L 204.450103 156.30884 
L 204.450103 143.035375 
L 203.046988 143.035375 
z
" clip-path="url(#p4ee81fc845)" style="opacity: 0.8; stroke: #000000; stroke-linejoin: miter"/>
   </g>
   <g id="patch_12">
    <path d="M 216.236266 132.198021 
L 218.200627 137.44567 
L 216.797512 137.44567 
L 216.797512 156.30884 
L 215.675021 156.30884 
L 215.675021 137.44567 
L 214.271906 137.44567 
z
" clip-path="url(#p4ee81fc845)" style="opacity: 0.8; stroke: #000000; stroke-linejoin: miter"/>
   </g>
   <g id="patch_13">
    <path d="M 108 166.804138 
L 108 51.355862 
" style="fill: none; stroke: #000000; stroke-width: 0.8; stroke-linejoin: miter; stroke-linecap: square"/>
   </g>
   <g id="patch_14">
    <path d="M 223.448276 166.804138 
L 223.448276 51.355862 
" style="fill: none; stroke: #000000; stroke-width: 0.8; stroke-linejoin: miter; stroke-linecap: square"/>
   </g>
   <g id="patch_15">
    <path d="M 108 166.804138 
L 223.448276 166.804138 
" style="fill: none; stroke: #000000; stroke-width: 0.8; stroke-linejoin: miter; stroke-linecap: square"/>
   </g>
   <g id="patch_16">
    <path d="M 108 51.355862 
L 223.448276 51.355862 
" style="fill: none; stroke: #000000; stroke-width: 0.8; stroke-linejoin: miter; stroke-linecap: square"/>
   </g>
   <g id="line2d_28">
    <defs>
     <path id="m21d7c2ae6d" d="M 0 2.5 
C 0.663008 2.5 1.29895 2.236584 1.767767 1.767767 
C 2.236584 1.29895 2.5 0.663008 2.5 0 
C 2.5 -0.663008 2.236584 -1.29895 1.767767 -1.767767 
C 1.29895 -2.236584 0.663008 -2.5 0 -2.5 
C -0.663008 -2.5 -1.29895 -2.236584 -1.767767 -1.767767 
C -2.236584 -1.29895 -2.5 -0.663008 -2.5 0 
C -2.5 0.663008 -2.236584 1.29895 -1.767767 1.767767 
C -1.29895 2.236584 -0.663008 2.5 0 2.5 
z
" style="stroke: #000000"/>
    </defs>
    <g clip-path="url(#p4ee81fc845)">
     <use xlink:href="#m21d7c2ae6d" x="115.212009" y="156.30884" style="stroke: #000000"/>
    </g>
   </g>
   <g id="line2d_29">
    <g clip-path="url(#p4ee81fc845)">
     <use xlink:href="#m21d7c2ae6d" x="126.436927" y="156.30884" style="stroke: #000000"/>
    </g>
   </g>
   <g id="line2d_30">
    <g clip-path="url(#p4ee81fc845)">
     <use xlink:href="#m21d7c2ae6d" x="137.661844" y="156.30884" style="stroke: #000000"/>
    </g>
   </g>
   <g id="line2d_31">
    <g clip-path="url(#p4ee81fc845)">
     <use xlink:href="#m21d7c2ae6d" x="148.886762" y="156.30884" style="stroke: #000000"/>
    </g>
   </g>
   <g id="line2d_32">
    <g clip-path="url(#p4ee81fc845)">
     <use xlink:href="#m21d7c2ae6d" x="160.111679" y="156.30884" style="stroke: #000000"/>
    </g>
   </g>
   <g id="line2d_33">
    <g clip-path="url(#p4ee81fc845)">
     <use xlink:href="#m21d7c2ae6d" x="171.336597" y="156.30884" style="stroke: #000000"/>
    </g>
   </g>
   <g id="line2d_34">
    <g clip-path="url(#p4ee81fc845)">
     <use xlink:href="#m21d7c2ae6d" x="182.561514" y="156.30884" style="stroke: #000000"/>
    </g>
   </g>
   <g id="line2d_35">
    <g clip-path="url(#p4ee81fc845)">
     <use xlink:href="#m21d7c2ae6d" x="193.786432" y="156.30884" style="stroke: #000000"/>
    </g>
   </g>
   <g id="line2d_36">
    <g clip-path="url(#p4ee81fc845)">
     <use xlink:href="#m21d7c2ae6d" x="205.011349" y="156.30884" style="stroke: #000000"/>
    </g>
   </g>
   <g id="line2d_37">
    <g clip-path="url(#p4ee81fc845)">
     <use xlink:href="#m21d7c2ae6d" x="216.236266" y="156.30884" style="stroke: #000000"/>
    </g>
   </g>
   <g id="text_18">
    <!-- a) No club -->
    <g transform="translate(140.39945 45.355862) scale(0.12 -0.12)">
     <defs>
      <path id="TimesNewRomanPSMT-29" d="M 144 4313 
L 144 4444 
Q 619 4209 934 3891 
Q 1381 3434 1625 2820 
Q 1869 2206 1869 1541 
Q 1869 572 1392 -226 
Q 916 -1025 144 -1369 
L 144 -1253 
Q 528 -1038 776 -670 
Q 1025 -303 1145 264 
Q 1266 831 1266 1447 
Q 1266 2113 1163 2663 
Q 1084 3094 967 3353 
Q 850 3613 656 3853 
Q 463 4094 144 4313 
z
" transform="scale(0.015625)"/>
      <path id="TimesNewRomanPSMT-63" d="M 2631 1088 
Q 2516 522 2178 217 
Q 1841 -88 1431 -88 
Q 944 -88 581 321 
Q 219 731 219 1428 
Q 219 2103 620 2525 
Q 1022 2947 1584 2947 
Q 2006 2947 2278 2723 
Q 2550 2500 2550 2259 
Q 2550 2141 2473 2067 
Q 2397 1994 2259 1994 
Q 2075 1994 1981 2113 
Q 1928 2178 1911 2362 
Q 1894 2547 1784 2644 
Q 1675 2738 1481 2738 
Q 1169 2738 978 2506 
Q 725 2200 725 1697 
Q 725 1184 976 792 
Q 1228 400 1656 400 
Q 1963 400 2206 609 
Q 2378 753 2541 1131 
L 2631 1088 
z
" transform="scale(0.015625)"/>
      <path id="TimesNewRomanPSMT-75" d="M 2709 2863 
L 2709 1128 
Q 2709 631 2732 520 
Q 2756 409 2807 365 
Q 2859 322 2928 322 
Q 3025 322 3147 375 
L 3191 266 
L 2334 -88 
L 2194 -88 
L 2194 519 
Q 1825 119 1631 15 
Q 1438 -88 1222 -88 
Q 981 -88 804 51 
Q 628 191 559 409 
Q 491 628 491 1028 
L 491 2306 
Q 491 2509 447 2587 
Q 403 2666 317 2708 
Q 231 2750 6 2747 
L 6 2863 
L 1009 2863 
L 1009 947 
Q 1009 547 1148 422 
Q 1288 297 1484 297 
Q 1619 297 1789 381 
Q 1959 466 2194 703 
L 2194 2325 
Q 2194 2569 2105 2655 
Q 2016 2741 1734 2747 
L 1734 2863 
L 2709 2863 
z
" transform="scale(0.015625)"/>
      <path id="TimesNewRomanPSMT-62" d="M 984 2369 
Q 1400 2947 1881 2947 
Q 2322 2947 2650 2570 
Q 2978 2194 2978 1541 
Q 2978 778 2472 313 
Q 2038 -88 1503 -88 
Q 1253 -88 995 3 
Q 738 94 469 275 
L 469 3241 
Q 469 3728 445 3840 
Q 422 3953 372 3993 
Q 322 4034 247 4034 
Q 159 4034 28 3984 
L -16 4094 
L 844 4444 
L 984 4444 
L 984 2369 
z
M 984 2169 
L 984 456 
Q 1144 300 1314 220 
Q 1484 141 1663 141 
Q 1947 141 2192 453 
Q 2438 766 2438 1363 
Q 2438 1913 2192 2208 
Q 1947 2503 1634 2503 
Q 1469 2503 1303 2419 
Q 1178 2356 984 2169 
z
" transform="scale(0.015625)"/>
     </defs>
     <use xlink:href="#TimesNewRomanPSMT-61"/>
     <use xlink:href="#TimesNewRomanPSMT-29" transform="translate(44.384766 0)"/>
     <use xlink:href="#TimesNewRomanPSMT-20" transform="translate(77.685547 0)"/>
     <use xlink:href="#TimesNewRomanPSMT-4e" transform="translate(102.685547 0)"/>
     <use xlink:href="#TimesNewRomanPSMT-6f" transform="translate(174.902344 0)"/>
     <use xlink:href="#TimesNewRomanPSMT-20" transform="translate(224.902344 0)"/>
     <use xlink:href="#TimesNewRomanPSMT-63" transform="translate(249.902344 0)"/>
     <use xlink:href="#TimesNewRomanPSMT-6c" transform="translate(294.287109 0)"/>
     <use xlink:href="#TimesNewRomanPSMT-75" transform="translate(322.070312 0)"/>
     <use xlink:href="#TimesNewRomanPSMT-62" transform="translate(372.070312 0)"/>
    </g>
   </g>
  </g>
  <g id="axes_2">
   <g id="patch_17">
    <path d="M 246.537931 166.804138 
L 361.986207 166.804138 
L 361.986207 51.355862 
L 246.537931 51.355862 
z
" style="fill: #ffffff"/>
   </g>
   <g id="matplotlib.axis_3">
    <g id="xtick_11">
     <g id="line2d_38">
      <path d="M 253.74994 166.804138 
L 253.74994 51.355862 
" clip-path="url(#pf5aab00201)" style="fill: none; stroke: #b0b0b0; stroke-width: 0.8; stroke-linecap: square"/>
     </g>
     <g id="line2d_39">
      <g>
       <use xlink:href="#mb5b278b628" x="253.74994" y="166.804138" style="stroke: #000000; stroke-width: 0.8"/>
      </g>
     </g>
     <g id="text_19">
      <!-- 0 -->
      <g transform="translate(251.24994 180.747888) scale(0.1 -0.1)">
       <use xlink:href="#TimesNewRomanPSMT-30"/>
      </g>
     </g>
    </g>
    <g id="xtick_12">
     <g id="line2d_40">
      <path d="M 264.974858 166.804138 
L 264.974858 51.355862 
" clip-path="url(#pf5aab00201)" style="fill: none; stroke: #b0b0b0; stroke-width: 0.8; stroke-linecap: square"/>
     </g>
     <g id="line2d_41">
      <g>
       <use xlink:href="#mb5b278b628" x="264.974858" y="166.804138" style="stroke: #000000; stroke-width: 0.8"/>
      </g>
     </g>
     <g id="text_20">
      <!-- 1 -->
      <g transform="translate(262.474858 180.747888) scale(0.1 -0.1)">
       <use xlink:href="#TimesNewRomanPSMT-31"/>
      </g>
     </g>
    </g>
    <g id="xtick_13">
     <g id="line2d_42">
      <path d="M 276.199775 166.804138 
L 276.199775 51.355862 
" clip-path="url(#pf5aab00201)" style="fill: none; stroke: #b0b0b0; stroke-width: 0.8; stroke-linecap: square"/>
     </g>
     <g id="line2d_43">
      <g>
       <use xlink:href="#mb5b278b628" x="276.199775" y="166.804138" style="stroke: #000000; stroke-width: 0.8"/>
      </g>
     </g>
     <g id="text_21">
      <!-- 2 -->
      <g transform="translate(273.699775 180.747888) scale(0.1 -0.1)">
       <use xlink:href="#TimesNewRomanPSMT-32"/>
      </g>
     </g>
    </g>
    <g id="xtick_14">
     <g id="line2d_44">
      <path d="M 287.424693 166.804138 
L 287.424693 51.355862 
" clip-path="url(#pf5aab00201)" style="fill: none; stroke: #b0b0b0; stroke-width: 0.8; stroke-linecap: square"/>
     </g>
     <g id="line2d_45">
      <g>
       <use xlink:href="#mb5b278b628" x="287.424693" y="166.804138" style="stroke: #000000; stroke-width: 0.8"/>
      </g>
     </g>
     <g id="text_22">
      <!-- 3 -->
      <g transform="translate(284.924693 180.747888) scale(0.1 -0.1)">
       <use xlink:href="#TimesNewRomanPSMT-33"/>
      </g>
     </g>
    </g>
    <g id="xtick_15">
     <g id="line2d_46">
      <path d="M 298.64961 166.804138 
L 298.64961 51.355862 
" clip-path="url(#pf5aab00201)" style="fill: none; stroke: #b0b0b0; stroke-width: 0.8; stroke-linecap: square"/>
     </g>
     <g id="line2d_47">
      <g>
       <use xlink:href="#mb5b278b628" x="298.64961" y="166.804138" style="stroke: #000000; stroke-width: 0.8"/>
      </g>
     </g>
     <g id="text_23">
      <!-- 4 -->
      <g transform="translate(296.14961 180.747888) scale(0.1 -0.1)">
       <use xlink:href="#TimesNewRomanPSMT-34"/>
      </g>
     </g>
    </g>
    <g id="xtick_16">
     <g id="line2d_48">
      <path d="M 309.874528 166.804138 
L 309.874528 51.355862 
" clip-path="url(#pf5aab00201)" style="fill: none; stroke: #b0b0b0; stroke-width: 0.8; stroke-linecap: square"/>
     </g>
     <g id="line2d_49">
      <g>
       <use xlink:href="#mb5b278b628" x="309.874528" y="166.804138" style="stroke: #000000; stroke-width: 0.8"/>
      </g>
     </g>
     <g id="text_24">
      <!-- 5 -->
      <g transform="translate(307.374528 180.747888) scale(0.1 -0.1)">
       <use xlink:href="#TimesNewRomanPSMT-35"/>
      </g>
     </g>
    </g>
    <g id="xtick_17">
     <g id="line2d_50">
      <path d="M 321.099445 166.804138 
L 321.099445 51.355862 
" clip-path="url(#pf5aab00201)" style="fill: none; stroke: #b0b0b0; stroke-width: 0.8; stroke-linecap: square"/>
     </g>
     <g id="line2d_51">
      <g>
       <use xlink:href="#mb5b278b628" x="321.099445" y="166.804138" style="stroke: #000000; stroke-width: 0.8"/>
      </g>
     </g>
     <g id="text_25">
      <!-- 6 -->
      <g transform="translate(318.599445 180.747888) scale(0.1 -0.1)">
       <use xlink:href="#TimesNewRomanPSMT-36"/>
      </g>
     </g>
    </g>
    <g id="xtick_18">
     <g id="line2d_52">
      <path d="M 332.324363 166.804138 
L 332.324363 51.355862 
" clip-path="url(#pf5aab00201)" style="fill: none; stroke: #b0b0b0; stroke-width: 0.8; stroke-linecap: square"/>
     </g>
     <g id="line2d_53">
      <g>
       <use xlink:href="#mb5b278b628" x="332.324363" y="166.804138" style="stroke: #000000; stroke-width: 0.8"/>
      </g>
     </g>
     <g id="text_26">
      <!-- 7 -->
      <g transform="translate(329.824363 180.747888) scale(0.1 -0.1)">
       <use xlink:href="#TimesNewRomanPSMT-37"/>
      </g>
     </g>
    </g>
    <g id="xtick_19">
     <g id="line2d_54">
      <path d="M 343.54928 166.804138 
L 343.54928 51.355862 
" clip-path="url(#pf5aab00201)" style="fill: none; stroke: #b0b0b0; stroke-width: 0.8; stroke-linecap: square"/>
     </g>
     <g id="line2d_55">
      <g>
       <use xlink:href="#mb5b278b628" x="343.54928" y="166.804138" style="stroke: #000000; stroke-width: 0.8"/>
      </g>
     </g>
     <g id="text_27">
      <!-- 8 -->
      <g transform="translate(341.04928 180.747888) scale(0.1 -0.1)">
       <use xlink:href="#TimesNewRomanPSMT-38"/>
      </g>
     </g>
    </g>
    <g id="xtick_20">
     <g id="line2d_56">
      <path d="M 354.774197 166.804138 
L 354.774197 51.355862 
" clip-path="url(#pf5aab00201)" style="fill: none; stroke: #b0b0b0; stroke-width: 0.8; stroke-linecap: square"/>
     </g>
     <g id="line2d_57">
      <g>
       <use xlink:href="#mb5b278b628" x="354.774197" y="166.804138" style="stroke: #000000; stroke-width: 0.8"/>
      </g>
     </g>
     <g id="text_28">
      <!-- 9 -->
      <g transform="translate(352.274197 180.747888) scale(0.1 -0.1)">
       <use xlink:href="#TimesNewRomanPSMT-39"/>
      </g>
     </g>
    </g>
   </g>
   <g id="line2d_58">
    <path d="M 246.537931 156.30884 
L 361.986207 156.30884 
" clip-path="url(#pf5aab00201)" style="fill: none; stroke: #000000; stroke-linecap: square"/>
   </g>
   <g id="patch_18">
    <path d="M 253.74994 105.775925 
L 251.78558 100.528276 
L 253.188695 100.528276 
L 253.188695 59.130157 
L 254.311186 59.130157 
L 254.311186 100.528276 
L 255.714301 100.528276 
z
" clip-path="url(#pf5aab00201)" style="fill: #ff0000; opacity: 0.8; stroke: #ff0000; stroke-linejoin: miter"/>
   </g>
   <g id="patch_19">
    <path d="M 264.974858 156.30884 
L 266.939218 161.556489 
L 265.536104 161.556489 
L 265.536104 161.737442 
L 264.413612 161.737442 
L 264.413612 161.556489 
L 263.010497 161.556489 
z
" clip-path="url(#pf5aab00201)" style="opacity: 0.8; stroke: #000000; stroke-linejoin: miter"/>
   </g>
   <g id="patch_20">
    <path d="M 276.199775 134.268715 
L 278.164136 139.516364 
L 276.761021 139.516364 
L 276.761021 144.764013 
L 275.638529 144.764013 
L 275.638529 139.516364 
L 274.235415 139.516364 
z
" clip-path="url(#pf5aab00201)" style="opacity: 0.8; stroke: #000000; stroke-linejoin: miter"/>
   </g>
   <g id="patch_21">
    <path clip-path="url(#pf5aab00201)" style="opacity: 0.8; stroke: #000000; stroke-linejoin: miter"/>
   </g>
   <g id="patch_22">
    <path clip-path="url(#pf5aab00201)" style="opacity: 0.8; stroke: #000000; stroke-linejoin: miter"/>
   </g>
   <g id="patch_23">
    <path d="M 309.874528 156.30884 
L 311.838888 161.556489 
L 310.435774 161.556489 
L 310.435774 162.534864 
L 309.313282 162.534864 
L 309.313282 161.556489 
L 307.910167 161.556489 
z
" clip-path="url(#pf5aab00201)" style="opacity: 0.8; stroke: #000000; stroke-linejoin: miter"/>
   </g>
   <g id="patch_24">
    <path d="M 321.099445 157.198272 
L 323.063806 158.087704 
L 321.660691 158.087704 
L 321.660691 158.087704 
L 320.538199 158.087704 
L 320.538199 158.087704 
L 319.135085 158.087704 
z
" clip-path="url(#pf5aab00201)" style="opacity: 0.8; stroke: #000000; stroke-linejoin: miter"/>
   </g>
   <g id="patch_25">
    <path d="M 332.324363 155.279889 
L 330.360002 150.03224 
L 331.763117 150.03224 
L 331.763117 148.077234 
L 332.885608 148.077234 
L 332.885608 150.03224 
L 334.288723 150.03224 
z
" clip-path="url(#pf5aab00201)" style="fill: #ff0000; opacity: 0.8; stroke: #ff0000; stroke-linejoin: miter"/>
   </g>
   <g id="patch_26">
    <path d="M 343.54928 137.787726 
L 345.513641 143.035375 
L 344.110526 143.035375 
L 344.110526 148.077234 
L 342.988034 148.077234 
L 342.988034 143.035375 
L 341.584919 143.035375 
z
" clip-path="url(#pf5aab00201)" style="opacity: 0.8; stroke: #000000; stroke-linejoin: miter"/>
   </g>
   <g id="patch_27">
    <path d="M 354.774197 130.779737 
L 356.738558 136.027386 
L 355.335443 136.027386 
L 355.335443 144.962572 
L 354.212952 144.962572 
L 354.212952 136.027386 
L 352.809837 136.027386 
z
" clip-path="url(#pf5aab00201)" style="opacity: 0.8; stroke: #000000; stroke-linejoin: miter"/>
   </g>
   <g id="patch_28">
    <path d="M 246.537931 166.804138 
L 246.537931 51.355862 
" style="fill: none; stroke: #000000; stroke-width: 0.8; stroke-linejoin: miter; stroke-linecap: square"/>
   </g>
   <g id="patch_29">
    <path d="M 361.986207 166.804138 
L 361.986207 51.355862 
" style="fill: none; stroke: #000000; stroke-width: 0.8; stroke-linejoin: miter; stroke-linecap: square"/>
   </g>
   <g id="patch_30">
    <path d="M 246.537931 166.804138 
L 361.986207 166.804138 
" style="fill: none; stroke: #000000; stroke-width: 0.8; stroke-linejoin: miter; stroke-linecap: square"/>
   </g>
   <g id="patch_31">
    <path d="M 246.537931 51.355862 
L 361.986207 51.355862 
" style="fill: none; stroke: #000000; stroke-width: 0.8; stroke-linejoin: miter; stroke-linecap: square"/>
   </g>
   <g id="line2d_59">
    <g clip-path="url(#pf5aab00201)">
     <use xlink:href="#m21d7c2ae6d" x="253.74994" y="59.130157" style="stroke: #000000"/>
    </g>
   </g>
   <g id="line2d_60">
    <defs>
     <path id="m6b80bdc41f" d="M 0 2.5 
C 0.663008 2.5 1.29895 2.236584 1.767767 1.767767 
C 2.236584 1.29895 2.5 0.663008 2.5 0 
C 2.5 -0.663008 2.236584 -1.29895 1.767767 -1.767767 
C 1.29895 -2.236584 0.663008 -2.5 0 -2.5 
C -0.663008 -2.5 -1.29895 -2.236584 -1.767767 -1.767767 
C -2.236584 -1.29895 -2.5 -0.663008 -2.5 0 
C -2.5 0.663008 -2.236584 1.29895 -1.767767 1.767767 
C -1.29895 2.236584 -0.663008 2.5 0 2.5 
z
" style="stroke: #000000"/>
    </defs>
    <g clip-path="url(#pf5aab00201)">
     <use xlink:href="#m6b80bdc41f" x="264.974858" y="161.737442" style="fill: #ffffff; stroke: #000000"/>
    </g>
   </g>
   <g id="line2d_61">
    <g clip-path="url(#pf5aab00201)">
     <use xlink:href="#m21d7c2ae6d" x="276.199775" y="144.764013" style="stroke: #000000"/>
    </g>
   </g>
   <g id="line2d_62">
    <g clip-path="url(#pf5aab00201)">
     <use xlink:href="#m21d7c2ae6d" x="287.424693" y="146.1521" style="stroke: #000000"/>
    </g>
   </g>
   <g id="line2d_63">
    <g clip-path="url(#pf5aab00201)">
     <use xlink:href="#m21d7c2ae6d" x="298.64961" y="154.499306" style="stroke: #000000"/>
    </g>
   </g>
   <g id="line2d_64">
    <g clip-path="url(#pf5aab00201)">
     <use xlink:href="#m6b80bdc41f" x="309.874528" y="162.534864" style="fill: #ffffff; stroke: #000000"/>
    </g>
   </g>
   <g id="line2d_65">
    <g clip-path="url(#pf5aab00201)">
     <use xlink:href="#m6b80bdc41f" x="321.099445" y="158.087704" style="fill: #ffffff; stroke: #000000"/>
    </g>
   </g>
   <g id="line2d_66">
    <g clip-path="url(#pf5aab00201)">
     <use xlink:href="#m21d7c2ae6d" x="332.324363" y="148.077234" style="stroke: #000000"/>
    </g>
   </g>
   <g id="line2d_67">
    <g clip-path="url(#pf5aab00201)">
     <use xlink:href="#m21d7c2ae6d" x="343.54928" y="148.077234" style="stroke: #000000"/>
    </g>
   </g>
   <g id="line2d_68">
    <g clip-path="url(#pf5aab00201)">
     <use xlink:href="#m21d7c2ae6d" x="354.774197" y="144.962572" style="stroke: #000000"/>
    </g>
   </g>
   <g id="text_29">
    <!-- b) Club is [1,5,6] -->
    <g transform="translate(263.097381 45.355862) scale(0.12 -0.12)">
     <defs>
      <path id="TimesNewRomanPSMT-43" d="M 3853 4334 
L 3950 2894 
L 3853 2894 
Q 3659 3541 3300 3825 
Q 2941 4109 2438 4109 
Q 2016 4109 1675 3895 
Q 1334 3681 1139 3212 
Q 944 2744 944 2047 
Q 944 1472 1128 1050 
Q 1313 628 1683 403 
Q 2053 178 2528 178 
Q 2941 178 3256 354 
Q 3572 531 3950 1056 
L 4047 994 
Q 3728 428 3303 165 
Q 2878 -97 2294 -97 
Q 1241 -97 663 684 
Q 231 1266 231 2053 
Q 231 2688 515 3219 
Q 800 3750 1298 4042 
Q 1797 4334 2388 4334 
Q 2847 4334 3294 4109 
Q 3425 4041 3481 4041 
Q 3566 4041 3628 4100 
Q 3709 4184 3744 4334 
L 3853 4334 
z
" transform="scale(0.015625)"/>
      <path id="TimesNewRomanPSMT-73" d="M 2050 2947 
L 2050 1972 
L 1947 1972 
Q 1828 2431 1642 2597 
Q 1456 2763 1169 2763 
Q 950 2763 815 2647 
Q 681 2531 681 2391 
Q 681 2216 781 2091 
Q 878 1963 1175 1819 
L 1631 1597 
Q 2266 1288 2266 781 
Q 2266 391 1970 151 
Q 1675 -88 1309 -88 
Q 1047 -88 709 6 
Q 606 38 541 38 
Q 469 38 428 -44 
L 325 -44 
L 325 978 
L 428 978 
Q 516 541 762 319 
Q 1009 97 1316 97 
Q 1531 97 1667 223 
Q 1803 350 1803 528 
Q 1803 744 1651 891 
Q 1500 1038 1047 1263 
Q 594 1488 453 1669 
Q 313 1847 313 2119 
Q 313 2472 555 2709 
Q 797 2947 1181 2947 
Q 1350 2947 1591 2875 
Q 1750 2828 1803 2828 
Q 1853 2828 1881 2850 
Q 1909 2872 1947 2947 
L 2050 2947 
z
" transform="scale(0.015625)"/>
      <path id="TimesNewRomanPSMT-5b" d="M 1900 -1269 
L 525 -1269 
L 525 4334 
L 1900 4334 
L 1900 4088 
L 994 4088 
L 994 -1025 
L 1900 -1025 
L 1900 -1269 
z
" transform="scale(0.015625)"/>
      <path id="TimesNewRomanPSMT-2c" d="M 344 -1066 
L 344 -928 
Q 666 -822 842 -598 
Q 1019 -375 1019 -125 
Q 1019 -66 991 -25 
Q 969 3 947 3 
Q 913 3 797 -59 
Q 741 -88 678 -88 
Q 525 -88 434 3 
Q 344 94 344 253 
Q 344 406 461 515 
Q 578 625 747 625 
Q 953 625 1114 445 
Q 1275 266 1275 -31 
Q 1275 -353 1051 -629 
Q 828 -906 344 -1066 
z
" transform="scale(0.015625)"/>
      <path id="TimesNewRomanPSMT-5d" d="M 234 4334 
L 1609 4334 
L 1609 -1272 
L 234 -1272 
L 234 -1025 
L 1141 -1025 
L 1141 4088 
L 234 4088 
L 234 4334 
z
" transform="scale(0.015625)"/>
     </defs>
     <use xlink:href="#TimesNewRomanPSMT-62"/>
     <use xlink:href="#TimesNewRomanPSMT-29" transform="translate(50 0)"/>
     <use xlink:href="#TimesNewRomanPSMT-20" transform="translate(83.300781 0)"/>
     <use xlink:href="#TimesNewRomanPSMT-43" transform="translate(108.300781 0)"/>
     <use xlink:href="#TimesNewRomanPSMT-6c" transform="translate(175 0)"/>
     <use xlink:href="#TimesNewRomanPSMT-75" transform="translate(202.783203 0)"/>
     <use xlink:href="#TimesNewRomanPSMT-62" transform="translate(252.783203 0)"/>
     <use xlink:href="#TimesNewRomanPSMT-20" transform="translate(302.783203 0)"/>
     <use xlink:href="#TimesNewRomanPSMT-69" transform="translate(327.783203 0)"/>
     <use xlink:href="#TimesNewRomanPSMT-73" transform="translate(355.566406 0)"/>
     <use xlink:href="#TimesNewRomanPSMT-20" transform="translate(394.482422 0)"/>
     <use xlink:href="#TimesNewRomanPSMT-5b" transform="translate(419.482422 0)"/>
     <use xlink:href="#TimesNewRomanPSMT-31" transform="translate(452.783203 0)"/>
     <use xlink:href="#TimesNewRomanPSMT-2c" transform="translate(502.783203 0)"/>
     <use xlink:href="#TimesNewRomanPSMT-35" transform="translate(527.783203 0)"/>
     <use xlink:href="#TimesNewRomanPSMT-2c" transform="translate(577.783203 0)"/>
     <use xlink:href="#TimesNewRomanPSMT-36" transform="translate(602.783203 0)"/>
     <use xlink:href="#TimesNewRomanPSMT-5d" transform="translate(652.783203 0)"/>
    </g>
   </g>
  </g>
  <g id="axes_3">
   <g id="patch_32">
    <path d="M 385.075862 166.804138 
L 500.524138 166.804138 
L 500.524138 51.355862 
L 385.075862 51.355862 
z
" style="fill: #ffffff"/>
   </g>
   <g id="matplotlib.axis_4">
    <g id="xtick_21">
     <g id="line2d_69">
      <path d="M 392.287872 166.804138 
L 392.287872 51.355862 
" clip-path="url(#pf92af2214c)" style="fill: none; stroke: #b0b0b0; stroke-width: 0.8; stroke-linecap: square"/>
     </g>
     <g id="line2d_70">
      <g>
       <use xlink:href="#mb5b278b628" x="392.287872" y="166.804138" style="stroke: #000000; stroke-width: 0.8"/>
      </g>
     </g>
     <g id="text_30">
      <!-- 0 -->
      <g transform="translate(389.787872 180.747888) scale(0.1 -0.1)">
       <use xlink:href="#TimesNewRomanPSMT-30"/>
      </g>
     </g>
    </g>
    <g id="xtick_22">
     <g id="line2d_71">
      <path d="M 403.512789 166.804138 
L 403.512789 51.355862 
" clip-path="url(#pf92af2214c)" style="fill: none; stroke: #b0b0b0; stroke-width: 0.8; stroke-linecap: square"/>
     </g>
     <g id="line2d_72">
      <g>
       <use xlink:href="#mb5b278b628" x="403.512789" y="166.804138" style="stroke: #000000; stroke-width: 0.8"/>
      </g>
     </g>
     <g id="text_31">
      <!-- 1 -->
      <g transform="translate(401.012789 180.747888) scale(0.1 -0.1)">
       <use xlink:href="#TimesNewRomanPSMT-31"/>
      </g>
     </g>
    </g>
    <g id="xtick_23">
     <g id="line2d_73">
      <path d="M 414.737706 166.804138 
L 414.737706 51.355862 
" clip-path="url(#pf92af2214c)" style="fill: none; stroke: #b0b0b0; stroke-width: 0.8; stroke-linecap: square"/>
     </g>
     <g id="line2d_74">
      <g>
       <use xlink:href="#mb5b278b628" x="414.737706" y="166.804138" style="stroke: #000000; stroke-width: 0.8"/>
      </g>
     </g>
     <g id="text_32">
      <!-- 2 -->
      <g transform="translate(412.237706 180.747888) scale(0.1 -0.1)">
       <use xlink:href="#TimesNewRomanPSMT-32"/>
      </g>
     </g>
    </g>
    <g id="xtick_24">
     <g id="line2d_75">
      <path d="M 425.962624 166.804138 
L 425.962624 51.355862 
" clip-path="url(#pf92af2214c)" style="fill: none; stroke: #b0b0b0; stroke-width: 0.8; stroke-linecap: square"/>
     </g>
     <g id="line2d_76">
      <g>
       <use xlink:href="#mb5b278b628" x="425.962624" y="166.804138" style="stroke: #000000; stroke-width: 0.8"/>
      </g>
     </g>
     <g id="text_33">
      <!-- 3 -->
      <g transform="translate(423.462624 180.747888) scale(0.1 -0.1)">
       <use xlink:href="#TimesNewRomanPSMT-33"/>
      </g>
     </g>
    </g>
    <g id="xtick_25">
     <g id="line2d_77">
      <path d="M 437.187541 166.804138 
L 437.187541 51.355862 
" clip-path="url(#pf92af2214c)" style="fill: none; stroke: #b0b0b0; stroke-width: 0.8; stroke-linecap: square"/>
     </g>
     <g id="line2d_78">
      <g>
       <use xlink:href="#mb5b278b628" x="437.187541" y="166.804138" style="stroke: #000000; stroke-width: 0.8"/>
      </g>
     </g>
     <g id="text_34">
      <!-- 4 -->
      <g transform="translate(434.687541 180.747888) scale(0.1 -0.1)">
       <use xlink:href="#TimesNewRomanPSMT-34"/>
      </g>
     </g>
    </g>
    <g id="xtick_26">
     <g id="line2d_79">
      <path d="M 448.412459 166.804138 
L 448.412459 51.355862 
" clip-path="url(#pf92af2214c)" style="fill: none; stroke: #b0b0b0; stroke-width: 0.8; stroke-linecap: square"/>
     </g>
     <g id="line2d_80">
      <g>
       <use xlink:href="#mb5b278b628" x="448.412459" y="166.804138" style="stroke: #000000; stroke-width: 0.8"/>
      </g>
     </g>
     <g id="text_35">
      <!-- 5 -->
      <g transform="translate(445.912459 180.747888) scale(0.1 -0.1)">
       <use xlink:href="#TimesNewRomanPSMT-35"/>
      </g>
     </g>
    </g>
    <g id="xtick_27">
     <g id="line2d_81">
      <path d="M 459.637376 166.804138 
L 459.637376 51.355862 
" clip-path="url(#pf92af2214c)" style="fill: none; stroke: #b0b0b0; stroke-width: 0.8; stroke-linecap: square"/>
     </g>
     <g id="line2d_82">
      <g>
       <use xlink:href="#mb5b278b628" x="459.637376" y="166.804138" style="stroke: #000000; stroke-width: 0.8"/>
      </g>
     </g>
     <g id="text_36">
      <!-- 6 -->
      <g transform="translate(457.137376 180.747888) scale(0.1 -0.1)">
       <use xlink:href="#TimesNewRomanPSMT-36"/>
      </g>
     </g>
    </g>
    <g id="xtick_28">
     <g id="line2d_83">
      <path d="M 470.862294 166.804138 
L 470.862294 51.355862 
" clip-path="url(#pf92af2214c)" style="fill: none; stroke: #b0b0b0; stroke-width: 0.8; stroke-linecap: square"/>
     </g>
     <g id="line2d_84">
      <g>
       <use xlink:href="#mb5b278b628" x="470.862294" y="166.804138" style="stroke: #000000; stroke-width: 0.8"/>
      </g>
     </g>
     <g id="text_37">
      <!-- 7 -->
      <g transform="translate(468.362294 180.747888) scale(0.1 -0.1)">
       <use xlink:href="#TimesNewRomanPSMT-37"/>
      </g>
     </g>
    </g>
    <g id="xtick_29">
     <g id="line2d_85">
      <path d="M 482.087211 166.804138 
L 482.087211 51.355862 
" clip-path="url(#pf92af2214c)" style="fill: none; stroke: #b0b0b0; stroke-width: 0.8; stroke-linecap: square"/>
     </g>
     <g id="line2d_86">
      <g>
       <use xlink:href="#mb5b278b628" x="482.087211" y="166.804138" style="stroke: #000000; stroke-width: 0.8"/>
      </g>
     </g>
     <g id="text_38">
      <!-- 8 -->
      <g transform="translate(479.587211 180.747888) scale(0.1 -0.1)">
       <use xlink:href="#TimesNewRomanPSMT-38"/>
      </g>
     </g>
    </g>
    <g id="xtick_30">
     <g id="line2d_87">
      <path d="M 493.312128 166.804138 
L 493.312128 51.355862 
" clip-path="url(#pf92af2214c)" style="fill: none; stroke: #b0b0b0; stroke-width: 0.8; stroke-linecap: square"/>
     </g>
     <g id="line2d_88">
      <g>
       <use xlink:href="#mb5b278b628" x="493.312128" y="166.804138" style="stroke: #000000; stroke-width: 0.8"/>
      </g>
     </g>
     <g id="text_39">
      <!-- 9 -->
      <g transform="translate(490.812128 180.747888) scale(0.1 -0.1)">
       <use xlink:href="#TimesNewRomanPSMT-39"/>
      </g>
     </g>
    </g>
    <g id="text_40">
     <!-- Agent ID -->
     <g transform="translate(420.305625 195.19695) scale(0.12 -0.12)">
      <defs>
       <path id="TimesNewRomanPSMT-41" d="M 2928 1419 
L 1288 1419 
L 1000 750 
Q 894 503 894 381 
Q 894 284 986 211 
Q 1078 138 1384 116 
L 1384 0 
L 50 0 
L 50 116 
Q 316 163 394 238 
Q 553 388 747 847 
L 2238 4334 
L 2347 4334 
L 3822 809 
Q 4000 384 4145 257 
Q 4291 131 4550 116 
L 4550 0 
L 2878 0 
L 2878 116 
Q 3131 128 3220 200 
Q 3309 272 3309 375 
Q 3309 513 3184 809 
L 2928 1419 
z
M 2841 1650 
L 2122 3363 
L 1384 1650 
L 2841 1650 
z
" transform="scale(0.015625)"/>
       <path id="TimesNewRomanPSMT-67" d="M 966 1044 
Q 703 1172 562 1401 
Q 422 1631 422 1909 
Q 422 2334 742 2640 
Q 1063 2947 1563 2947 
Q 1972 2947 2272 2747 
L 2878 2747 
Q 3013 2747 3034 2739 
Q 3056 2731 3066 2713 
Q 3084 2684 3084 2613 
Q 3084 2531 3069 2500 
Q 3059 2484 3036 2475 
Q 3013 2466 2878 2466 
L 2506 2466 
Q 2681 2241 2681 1891 
Q 2681 1491 2375 1206 
Q 2069 922 1553 922 
Q 1341 922 1119 984 
Q 981 866 932 777 
Q 884 688 884 625 
Q 884 572 936 522 
Q 988 472 1138 450 
Q 1225 438 1575 428 
Q 2219 413 2409 384 
Q 2700 344 2873 169 
Q 3047 -6 3047 -263 
Q 3047 -616 2716 -925 
Q 2228 -1381 1444 -1381 
Q 841 -1381 425 -1109 
Q 191 -953 191 -784 
Q 191 -709 225 -634 
Q 278 -519 444 -313 
Q 466 -284 763 25 
Q 600 122 533 198 
Q 466 275 466 372 
Q 466 481 555 628 
Q 644 775 966 1044 
z
M 1509 2797 
Q 1278 2797 1122 2612 
Q 966 2428 966 2047 
Q 966 1553 1178 1281 
Q 1341 1075 1591 1075 
Q 1828 1075 1981 1253 
Q 2134 1431 2134 1813 
Q 2134 2309 1919 2591 
Q 1759 2797 1509 2797 
z
M 934 0 
Q 788 -159 713 -296 
Q 638 -434 638 -550 
Q 638 -700 819 -813 
Q 1131 -1006 1722 -1006 
Q 2284 -1006 2551 -807 
Q 2819 -609 2819 -384 
Q 2819 -222 2659 -153 
Q 2497 -84 2016 -72 
Q 1313 -53 934 0 
z
" transform="scale(0.015625)"/>
       <path id="TimesNewRomanPSMT-6e" d="M 1034 2341 
Q 1538 2947 1994 2947 
Q 2228 2947 2397 2830 
Q 2566 2713 2666 2444 
Q 2734 2256 2734 1869 
L 2734 647 
Q 2734 375 2778 278 
Q 2813 200 2889 156 
Q 2966 113 3172 113 
L 3172 0 
L 1756 0 
L 1756 113 
L 1816 113 
Q 2016 113 2095 173 
Q 2175 234 2206 353 
Q 2219 400 2219 647 
L 2219 1819 
Q 2219 2209 2117 2386 
Q 2016 2563 1775 2563 
Q 1403 2563 1034 2156 
L 1034 647 
Q 1034 356 1069 288 
Q 1113 197 1189 155 
Q 1266 113 1500 113 
L 1500 0 
L 84 0 
L 84 113 
L 147 113 
Q 366 113 442 223 
Q 519 334 519 647 
L 519 1709 
Q 519 2225 495 2337 
Q 472 2450 423 2490 
Q 375 2531 294 2531 
Q 206 2531 84 2484 
L 38 2597 
L 900 2947 
L 1034 2947 
L 1034 2341 
z
" transform="scale(0.015625)"/>
       <path id="TimesNewRomanPSMT-49" d="M 1975 116 
L 1975 0 
L 159 0 
L 159 116 
L 309 116 
Q 572 116 691 269 
Q 766 369 766 750 
L 766 3488 
Q 766 3809 725 3913 
Q 694 3991 597 4047 
Q 459 4122 309 4122 
L 159 4122 
L 159 4238 
L 1975 4238 
L 1975 4122 
L 1822 4122 
Q 1563 4122 1444 3969 
Q 1366 3869 1366 3488 
L 1366 750 
Q 1366 428 1406 325 
Q 1438 247 1538 191 
Q 1672 116 1822 116 
L 1975 116 
z
" transform="scale(0.015625)"/>
       <path id="TimesNewRomanPSMT-44" d="M 109 0 
L 109 116 
L 269 116 
Q 538 116 650 288 
Q 719 391 719 750 
L 719 3488 
Q 719 3884 631 3984 
Q 509 4122 269 4122 
L 109 4122 
L 109 4238 
L 1834 4238 
Q 2784 4238 3279 4022 
Q 3775 3806 4076 3303 
Q 4378 2800 4378 2141 
Q 4378 1256 3841 663 
Q 3238 0 2003 0 
L 109 0 
z
M 1319 306 
Q 1716 219 1984 219 
Q 2709 219 3187 728 
Q 3666 1238 3666 2109 
Q 3666 2988 3187 3494 
Q 2709 4000 1959 4000 
Q 1678 4000 1319 3909 
L 1319 306 
z
" transform="scale(0.015625)"/>
      </defs>
      <use xlink:href="#TimesNewRomanPSMT-41"/>
      <use xlink:href="#TimesNewRomanPSMT-67" transform="translate(72.216797 0)"/>
      <use xlink:href="#TimesNewRomanPSMT-65" transform="translate(122.216797 0)"/>
      <use xlink:href="#TimesNewRomanPSMT-6e" transform="translate(166.601562 0)"/>
      <use xlink:href="#TimesNewRomanPSMT-74" transform="translate(216.601562 0)"/>
      <use xlink:href="#TimesNewRomanPSMT-20" transform="translate(244.384766 0)"/>
      <use xlink:href="#TimesNewRomanPSMT-49" transform="translate(269.384766 0)"/>
      <use xlink:href="#TimesNewRomanPSMT-44" transform="translate(302.685547 0)"/>
     </g>
    </g>
   </g>
   <g id="line2d_89">
    <path d="M 385.075862 156.30884 
L 500.524138 156.30884 
" clip-path="url(#pf92af2214c)" style="fill: none; stroke: #000000; stroke-linecap: square"/>
   </g>
   <g id="patch_33">
    <path d="M 392.287872 105.775925 
L 390.323511 100.528276 
L 391.726626 100.528276 
L 391.726626 59.130157 
L 392.849117 59.130157 
L 392.849117 100.528276 
L 394.252232 100.528276 
z
" clip-path="url(#pf92af2214c)" style="fill: #ff0000; opacity: 0.8; stroke: #ff0000; stroke-linejoin: miter"/>
   </g>
   <g id="patch_34">
    <path d="M 403.512789 143.642101 
L 405.47715 148.88975 
L 404.074035 148.88975 
L 404.074035 161.737442 
L 402.951543 161.737442 
L 402.951543 148.88975 
L 401.548428 148.88975 
z
" clip-path="url(#pf92af2214c)" style="opacity: 0.8; stroke: #000000; stroke-linejoin: miter"/>
   </g>
   <g id="patch_35">
    <path d="M 414.737706 134.268715 
L 416.702067 139.516364 
L 415.298952 139.516364 
L 415.298952 144.764013 
L 414.176461 144.764013 
L 414.176461 139.516364 
L 412.773346 139.516364 
z
" clip-path="url(#pf92af2214c)" style="opacity: 0.8; stroke: #000000; stroke-linejoin: miter"/>
   </g>
   <g id="patch_36">
    <path clip-path="url(#pf92af2214c)" style="opacity: 0.8; stroke: #000000; stroke-linejoin: miter"/>
   </g>
   <g id="patch_37">
    <path clip-path="url(#pf92af2214c)" style="opacity: 0.8; stroke: #000000; stroke-linejoin: miter"/>
   </g>
   <g id="patch_38">
    <path d="M 448.412459 145.635656 
L 450.376819 150.883305 
L 448.973705 150.883305 
L 448.973705 161.645432 
L 447.851213 161.645432 
L 447.851213 150.883305 
L 446.448098 150.883305 
z
" clip-path="url(#pf92af2214c)" style="opacity: 0.8; stroke: #000000; stroke-linejoin: miter"/>
   </g>
   <g id="patch_39">
    <path d="M 459.637376 146.525088 
L 461.601737 151.772737 
L 460.198622 151.772737 
L 460.198622 158.087704 
L 459.07613 158.087704 
L 459.07613 151.772737 
L 457.673016 151.772737 
z
" clip-path="url(#pf92af2214c)" style="opacity: 0.8; stroke: #000000; stroke-linejoin: miter"/>
   </g>
   <g id="patch_40">
    <path d="M 470.862294 148.077234 
L 472.826654 153.324883 
L 471.423539 153.324883 
L 471.423539 155.279889 
L 470.301048 155.279889 
L 470.301048 153.324883 
L 468.897933 153.324883 
z
" clip-path="url(#pf92af2214c)" style="opacity: 0.8; stroke: #000000; stroke-linejoin: miter"/>
   </g>
   <g id="patch_41">
    <path d="M 482.087211 135.729825 
L 484.051572 140.977474 
L 482.648457 140.977474 
L 482.648457 149.106185 
L 481.525965 149.106185 
L 481.525965 140.977474 
L 480.12285 140.977474 
z
" clip-path="url(#pf92af2214c)" style="opacity: 0.8; stroke: #000000; stroke-linejoin: miter"/>
   </g>
   <g id="patch_42">
    <path d="M 493.312128 132.198021 
L 495.276489 137.44567 
L 493.873374 137.44567 
L 493.873374 146.380856 
L 492.750883 146.380856 
L 492.750883 137.44567 
L 491.347768 137.44567 
z
" clip-path="url(#pf92af2214c)" style="opacity: 0.8; stroke: #000000; stroke-linejoin: miter"/>
   </g>
   <g id="patch_43">
    <path d="M 385.075862 166.804138 
L 385.075862 51.355862 
" style="fill: none; stroke: #000000; stroke-width: 0.8; stroke-linejoin: miter; stroke-linecap: square"/>
   </g>
   <g id="patch_44">
    <path d="M 500.524138 166.804138 
L 500.524138 51.355862 
" style="fill: none; stroke: #000000; stroke-width: 0.8; stroke-linejoin: miter; stroke-linecap: square"/>
   </g>
   <g id="patch_45">
    <path d="M 385.075862 166.804138 
L 500.524138 166.804138 
" style="fill: none; stroke: #000000; stroke-width: 0.8; stroke-linejoin: miter; stroke-linecap: square"/>
   </g>
   <g id="patch_46">
    <path d="M 385.075862 51.355862 
L 500.524138 51.355862 
" style="fill: none; stroke: #000000; stroke-width: 0.8; stroke-linejoin: miter; stroke-linecap: square"/>
   </g>
   <g id="line2d_90">
    <g clip-path="url(#pf92af2214c)">
     <use xlink:href="#m21d7c2ae6d" x="392.287872" y="59.130157" style="stroke: #000000"/>
    </g>
   </g>
   <g id="line2d_91">
    <g clip-path="url(#pf92af2214c)">
     <use xlink:href="#m6b80bdc41f" x="403.512789" y="161.737442" style="fill: #ffffff; stroke: #000000"/>
    </g>
   </g>
   <g id="line2d_92">
    <g clip-path="url(#pf92af2214c)">
     <use xlink:href="#m21d7c2ae6d" x="414.737706" y="144.764013" style="stroke: #000000"/>
    </g>
   </g>
   <g id="line2d_93">
    <g clip-path="url(#pf92af2214c)">
     <use xlink:href="#m21d7c2ae6d" x="425.962624" y="146.1521" style="stroke: #000000"/>
    </g>
   </g>
   <g id="line2d_94">
    <g clip-path="url(#pf92af2214c)">
     <use xlink:href="#m21d7c2ae6d" x="437.187541" y="154.499306" style="stroke: #000000"/>
    </g>
   </g>
   <g id="line2d_95">
    <g clip-path="url(#pf92af2214c)">
     <use xlink:href="#m6b80bdc41f" x="448.412459" y="161.645432" style="fill: #ffffff; stroke: #000000"/>
    </g>
   </g>
   <g id="line2d_96">
    <g clip-path="url(#pf92af2214c)">
     <use xlink:href="#m6b80bdc41f" x="459.637376" y="158.087704" style="fill: #ffffff; stroke: #000000"/>
    </g>
   </g>
   <g id="line2d_97">
    <g clip-path="url(#pf92af2214c)">
     <use xlink:href="#m6b80bdc41f" x="470.862294" y="155.279889" style="fill: #ffffff; stroke: #000000"/>
    </g>
   </g>
   <g id="line2d_98">
    <g clip-path="url(#pf92af2214c)">
     <use xlink:href="#m21d7c2ae6d" x="482.087211" y="149.106185" style="stroke: #000000"/>
    </g>
   </g>
   <g id="line2d_99">
    <g clip-path="url(#pf92af2214c)">
     <use xlink:href="#m21d7c2ae6d" x="493.312128" y="146.380856" style="stroke: #000000"/>
    </g>
   </g>
   <g id="text_41">
    <!-- c) Club is [1,5,6,7] -->
    <g transform="translate(397.471875 45.355862) scale(0.12 -0.12)">
     <use xlink:href="#TimesNewRomanPSMT-63"/>
     <use xlink:href="#TimesNewRomanPSMT-29" transform="translate(44.384766 0)"/>
     <use xlink:href="#TimesNewRomanPSMT-20" transform="translate(77.685547 0)"/>
     <use xlink:href="#TimesNewRomanPSMT-43" transform="translate(102.685547 0)"/>
     <use xlink:href="#TimesNewRomanPSMT-6c" transform="translate(169.384766 0)"/>
     <use xlink:href="#TimesNewRomanPSMT-75" transform="translate(197.167969 0)"/>
     <use xlink:href="#TimesNewRomanPSMT-62" transform="translate(247.167969 0)"/>
     <use xlink:href="#TimesNewRomanPSMT-20" transform="translate(297.167969 0)"/>
     <use xlink:href="#TimesNewRomanPSMT-69" transform="translate(322.167969 0)"/>
     <use xlink:href="#TimesNewRomanPSMT-73" transform="translate(349.951172 0)"/>
     <use xlink:href="#TimesNewRomanPSMT-20" transform="translate(388.867188 0)"/>
     <use xlink:href="#TimesNewRomanPSMT-5b" transform="translate(413.867188 0)"/>
     <use xlink:href="#TimesNewRomanPSMT-31" transform="translate(447.167969 0)"/>
     <use xlink:href="#TimesNewRomanPSMT-2c" transform="translate(497.167969 0)"/>
     <use xlink:href="#TimesNewRomanPSMT-35" transform="translate(522.167969 0)"/>
     <use xlink:href="#TimesNewRomanPSMT-2c" transform="translate(572.167969 0)"/>
     <use xlink:href="#TimesNewRomanPSMT-36" transform="translate(597.167969 0)"/>
     <use xlink:href="#TimesNewRomanPSMT-2c" transform="translate(647.167969 0)"/>
     <use xlink:href="#TimesNewRomanPSMT-37" transform="translate(672.167969 0)"/>
     <use xlink:href="#TimesNewRomanPSMT-5d" transform="translate(722.167969 0)"/>
    </g>
   </g>
  </g>
  <g id="axes_4">
   <g id="patch_47">
    <path d="M 523.613793 166.804138 
L 639.062069 166.804138 
L 639.062069 51.355862 
L 523.613793 51.355862 
z
" style="fill: #ffffff"/>
   </g>
   <g id="matplotlib.axis_5">
    <g id="xtick_31">
     <g id="line2d_100">
      <path d="M 530.825803 166.804138 
L 530.825803 51.355862 
" clip-path="url(#pb7d2530564)" style="fill: none; stroke: #b0b0b0; stroke-width: 0.8; stroke-linecap: square"/>
     </g>
     <g id="line2d_101">
      <g>
       <use xlink:href="#mb5b278b628" x="530.825803" y="166.804138" style="stroke: #000000; stroke-width: 0.8"/>
      </g>
     </g>
     <g id="text_42">
      <!-- 0 -->
      <g transform="translate(528.325803 180.747888) scale(0.1 -0.1)">
       <use xlink:href="#TimesNewRomanPSMT-30"/>
      </g>
     </g>
    </g>
    <g id="xtick_32">
     <g id="line2d_102">
      <path d="M 542.05072 166.804138 
L 542.05072 51.355862 
" clip-path="url(#pb7d2530564)" style="fill: none; stroke: #b0b0b0; stroke-width: 0.8; stroke-linecap: square"/>
     </g>
     <g id="line2d_103">
      <g>
       <use xlink:href="#mb5b278b628" x="542.05072" y="166.804138" style="stroke: #000000; stroke-width: 0.8"/>
      </g>
     </g>
     <g id="text_43">
      <!-- 1 -->
      <g transform="translate(539.55072 180.747888) scale(0.1 -0.1)">
       <use xlink:href="#TimesNewRomanPSMT-31"/>
      </g>
     </g>
    </g>
    <g id="xtick_33">
     <g id="line2d_104">
      <path d="M 553.275637 166.804138 
L 553.275637 51.355862 
" clip-path="url(#pb7d2530564)" style="fill: none; stroke: #b0b0b0; stroke-width: 0.8; stroke-linecap: square"/>
     </g>
     <g id="line2d_105">
      <g>
       <use xlink:href="#mb5b278b628" x="553.275637" y="166.804138" style="stroke: #000000; stroke-width: 0.8"/>
      </g>
     </g>
     <g id="text_44">
      <!-- 2 -->
      <g transform="translate(550.775637 180.747888) scale(0.1 -0.1)">
       <use xlink:href="#TimesNewRomanPSMT-32"/>
      </g>
     </g>
    </g>
    <g id="xtick_34">
     <g id="line2d_106">
      <path d="M 564.500555 166.804138 
L 564.500555 51.355862 
" clip-path="url(#pb7d2530564)" style="fill: none; stroke: #b0b0b0; stroke-width: 0.8; stroke-linecap: square"/>
     </g>
     <g id="line2d_107">
      <g>
       <use xlink:href="#mb5b278b628" x="564.500555" y="166.804138" style="stroke: #000000; stroke-width: 0.8"/>
      </g>
     </g>
     <g id="text_45">
      <!-- 3 -->
      <g transform="translate(562.000555 180.747888) scale(0.1 -0.1)">
       <use xlink:href="#TimesNewRomanPSMT-33"/>
      </g>
     </g>
    </g>
    <g id="xtick_35">
     <g id="line2d_108">
      <path d="M 575.725472 166.804138 
L 575.725472 51.355862 
" clip-path="url(#pb7d2530564)" style="fill: none; stroke: #b0b0b0; stroke-width: 0.8; stroke-linecap: square"/>
     </g>
     <g id="line2d_109">
      <g>
       <use xlink:href="#mb5b278b628" x="575.725472" y="166.804138" style="stroke: #000000; stroke-width: 0.8"/>
      </g>
     </g>
     <g id="text_46">
      <!-- 4 -->
      <g transform="translate(573.225472 180.747888) scale(0.1 -0.1)">
       <use xlink:href="#TimesNewRomanPSMT-34"/>
      </g>
     </g>
    </g>
    <g id="xtick_36">
     <g id="line2d_110">
      <path d="M 586.95039 166.804138 
L 586.95039 51.355862 
" clip-path="url(#pb7d2530564)" style="fill: none; stroke: #b0b0b0; stroke-width: 0.8; stroke-linecap: square"/>
     </g>
     <g id="line2d_111">
      <g>
       <use xlink:href="#mb5b278b628" x="586.95039" y="166.804138" style="stroke: #000000; stroke-width: 0.8"/>
      </g>
     </g>
     <g id="text_47">
      <!-- 5 -->
      <g transform="translate(584.45039 180.747888) scale(0.1 -0.1)">
       <use xlink:href="#TimesNewRomanPSMT-35"/>
      </g>
     </g>
    </g>
    <g id="xtick_37">
     <g id="line2d_112">
      <path d="M 598.175307 166.804138 
L 598.175307 51.355862 
" clip-path="url(#pb7d2530564)" style="fill: none; stroke: #b0b0b0; stroke-width: 0.8; stroke-linecap: square"/>
     </g>
     <g id="line2d_113">
      <g>
       <use xlink:href="#mb5b278b628" x="598.175307" y="166.804138" style="stroke: #000000; stroke-width: 0.8"/>
      </g>
     </g>
     <g id="text_48">
      <!-- 6 -->
      <g transform="translate(595.675307 180.747888) scale(0.1 -0.1)">
       <use xlink:href="#TimesNewRomanPSMT-36"/>
      </g>
     </g>
    </g>
    <g id="xtick_38">
     <g id="line2d_114">
      <path d="M 609.400225 166.804138 
L 609.400225 51.355862 
" clip-path="url(#pb7d2530564)" style="fill: none; stroke: #b0b0b0; stroke-width: 0.8; stroke-linecap: square"/>
     </g>
     <g id="line2d_115">
      <g>
       <use xlink:href="#mb5b278b628" x="609.400225" y="166.804138" style="stroke: #000000; stroke-width: 0.8"/>
      </g>
     </g>
     <g id="text_49">
      <!-- 7 -->
      <g transform="translate(606.900225 180.747888) scale(0.1 -0.1)">
       <use xlink:href="#TimesNewRomanPSMT-37"/>
      </g>
     </g>
    </g>
    <g id="xtick_39">
     <g id="line2d_116">
      <path d="M 620.625142 166.804138 
L 620.625142 51.355862 
" clip-path="url(#pb7d2530564)" style="fill: none; stroke: #b0b0b0; stroke-width: 0.8; stroke-linecap: square"/>
     </g>
     <g id="line2d_117">
      <g>
       <use xlink:href="#mb5b278b628" x="620.625142" y="166.804138" style="stroke: #000000; stroke-width: 0.8"/>
      </g>
     </g>
     <g id="text_50">
      <!-- 8 -->
      <g transform="translate(618.125142 180.747888) scale(0.1 -0.1)">
       <use xlink:href="#TimesNewRomanPSMT-38"/>
      </g>
     </g>
    </g>
    <g id="xtick_40">
     <g id="line2d_118">
      <path d="M 631.85006 166.804138 
L 631.85006 51.355862 
" clip-path="url(#pb7d2530564)" style="fill: none; stroke: #b0b0b0; stroke-width: 0.8; stroke-linecap: square"/>
     </g>
     <g id="line2d_119">
      <g>
       <use xlink:href="#mb5b278b628" x="631.85006" y="166.804138" style="stroke: #000000; stroke-width: 0.8"/>
      </g>
     </g>
     <g id="text_51">
      <!-- 9 -->
      <g transform="translate(629.35006 180.747888) scale(0.1 -0.1)">
       <use xlink:href="#TimesNewRomanPSMT-39"/>
      </g>
     </g>
    </g>
   </g>
   <g id="line2d_120">
    <path d="M 523.613793 156.30884 
L 639.062069 156.30884 
" clip-path="url(#pb7d2530564)" style="fill: none; stroke: #000000; stroke-linecap: square"/>
   </g>
   <g id="patch_48">
    <path d="M 530.825803 59.130157 
L 532.790163 64.377806 
L 531.387048 64.377806 
L 531.387048 105.775925 
L 530.264557 105.775925 
L 530.264557 64.377806 
L 528.861442 64.377806 
z
" clip-path="url(#pb7d2530564)" style="opacity: 0.8; stroke: #000000; stroke-linejoin: miter"/>
   </g>
   <g id="patch_49">
    <path d="M 542.05072 145.451635 
L 544.015081 150.699284 
L 542.611966 150.699284 
L 542.611966 160.832675 
L 541.489474 160.832675 
L 541.489474 150.699284 
L 540.086359 150.699284 
z
" clip-path="url(#pb7d2530564)" style="opacity: 0.8; stroke: #000000; stroke-linejoin: miter"/>
   </g>
   <g id="patch_50">
    <path d="M 553.275637 134.268715 
L 555.239998 139.516364 
L 553.836883 139.516364 
L 553.836883 145.813542 
L 552.714392 145.813542 
L 552.714392 139.516364 
L 551.311277 139.516364 
z
" clip-path="url(#pb7d2530564)" style="opacity: 0.8; stroke: #000000; stroke-linejoin: miter"/>
   </g>
   <g id="patch_51">
    <path clip-path="url(#pb7d2530564)" style="opacity: 0.8; stroke: #000000; stroke-linejoin: miter"/>
   </g>
   <g id="patch_52">
    <path clip-path="url(#pb7d2530564)" style="opacity: 0.8; stroke: #000000; stroke-linejoin: miter"/>
   </g>
   <g id="patch_53">
    <path d="M 586.95039 145.635656 
L 588.91475 150.883305 
L 587.511636 150.883305 
L 587.511636 161.645432 
L 586.389144 161.645432 
L 586.389144 150.883305 
L 584.986029 150.883305 
z
" clip-path="url(#pb7d2530564)" style="opacity: 0.8; stroke: #000000; stroke-linejoin: miter"/>
   </g>
   <g id="patch_54">
    <path d="M 598.175307 146.525088 
L 600.139668 151.772737 
L 598.736553 151.772737 
L 598.736553 158.087704 
L 597.614061 158.087704 
L 597.614061 151.772737 
L 596.210947 151.772737 
z
" clip-path="url(#pb7d2530564)" style="opacity: 0.8; stroke: #000000; stroke-linejoin: miter"/>
   </g>
   <g id="patch_55">
    <path d="M 609.400225 147.048283 
L 607.435864 141.800634 
L 608.838979 141.800634 
L 608.838979 135.729825 
L 609.961471 135.729825 
L 609.961471 141.800634 
L 611.364585 141.800634 
z
" clip-path="url(#pb7d2530564)" style="fill: #ff0000; opacity: 0.8; stroke: #ff0000; stroke-linejoin: miter"/>
   </g>
   <g id="patch_56">
    <path d="M 620.625142 135.729825 
L 622.589503 140.977474 
L 621.186388 140.977474 
L 621.186388 150.135136 
L 620.063896 150.135136 
L 620.063896 140.977474 
L 618.660782 140.977474 
z
" clip-path="url(#pb7d2530564)" style="opacity: 0.8; stroke: #000000; stroke-linejoin: miter"/>
   </g>
   <g id="patch_57">
    <path d="M 631.85006 129.361454 
L 633.81442 134.609103 
L 632.411305 134.609103 
L 632.411305 146.380856 
L 631.288814 146.380856 
L 631.288814 134.609103 
L 629.885699 134.609103 
z
" clip-path="url(#pb7d2530564)" style="opacity: 0.8; stroke: #000000; stroke-linejoin: miter"/>
   </g>
   <g id="patch_58">
    <path d="M 523.613793 166.804138 
L 523.613793 51.355862 
" style="fill: none; stroke: #000000; stroke-width: 0.8; stroke-linejoin: miter; stroke-linecap: square"/>
   </g>
   <g id="patch_59">
    <path d="M 639.062069 166.804138 
L 639.062069 51.355862 
" style="fill: none; stroke: #000000; stroke-width: 0.8; stroke-linejoin: miter; stroke-linecap: square"/>
   </g>
   <g id="patch_60">
    <path d="M 523.613793 166.804138 
L 639.062069 166.804138 
" style="fill: none; stroke: #000000; stroke-width: 0.8; stroke-linejoin: miter; stroke-linecap: square"/>
   </g>
   <g id="patch_61">
    <path d="M 523.613793 51.355862 
L 639.062069 51.355862 
" style="fill: none; stroke: #000000; stroke-width: 0.8; stroke-linejoin: miter; stroke-linecap: square"/>
   </g>
   <g id="line2d_121">
    <g clip-path="url(#pb7d2530564)">
     <use xlink:href="#m6b80bdc41f" x="530.825803" y="105.775925" style="fill: #ffffff; stroke: #000000"/>
    </g>
   </g>
   <g id="line2d_122">
    <g clip-path="url(#pb7d2530564)">
     <use xlink:href="#m6b80bdc41f" x="542.05072" y="160.832675" style="fill: #ffffff; stroke: #000000"/>
    </g>
   </g>
   <g id="line2d_123">
    <g clip-path="url(#pb7d2530564)">
     <use xlink:href="#m21d7c2ae6d" x="553.275637" y="145.813542" style="stroke: #000000"/>
    </g>
   </g>
   <g id="line2d_124">
    <g clip-path="url(#pb7d2530564)">
     <use xlink:href="#m21d7c2ae6d" x="564.500555" y="146.1521" style="stroke: #000000"/>
    </g>
   </g>
   <g id="line2d_125">
    <g clip-path="url(#pb7d2530564)">
     <use xlink:href="#m21d7c2ae6d" x="575.725472" y="156.30884" style="stroke: #000000"/>
    </g>
   </g>
   <g id="line2d_126">
    <g clip-path="url(#pb7d2530564)">
     <use xlink:href="#m6b80bdc41f" x="586.95039" y="161.645432" style="fill: #ffffff; stroke: #000000"/>
    </g>
   </g>
   <g id="line2d_127">
    <g clip-path="url(#pb7d2530564)">
     <use xlink:href="#m6b80bdc41f" x="598.175307" y="158.087704" style="fill: #ffffff; stroke: #000000"/>
    </g>
   </g>
   <g id="line2d_128">
    <g clip-path="url(#pb7d2530564)">
     <use xlink:href="#m6b80bdc41f" x="609.400225" y="135.729825" style="fill: #ffffff; stroke: #000000"/>
    </g>
   </g>
   <g id="line2d_129">
    <g clip-path="url(#pb7d2530564)">
     <use xlink:href="#m21d7c2ae6d" x="620.625142" y="150.135136" style="stroke: #000000"/>
    </g>
   </g>
   <g id="line2d_130">
    <g clip-path="url(#pb7d2530564)">
     <use xlink:href="#m21d7c2ae6d" x="631.85006" y="146.380856" style="stroke: #000000"/>
    </g>
   </g>
   <g id="text_52">
    <!-- d) Club is [0,1,5,6,7] -->
    <g transform="translate(531.173244 45.355862) scale(0.12 -0.12)">
     <use xlink:href="#TimesNewRomanPSMT-64"/>
     <use xlink:href="#TimesNewRomanPSMT-29" transform="translate(50 0)"/>
     <use xlink:href="#TimesNewRomanPSMT-20" transform="translate(83.300781 0)"/>
     <use xlink:href="#TimesNewRomanPSMT-43" transform="translate(108.300781 0)"/>
     <use xlink:href="#TimesNewRomanPSMT-6c" transform="translate(175 0)"/>
     <use xlink:href="#TimesNewRomanPSMT-75" transform="translate(202.783203 0)"/>
     <use xlink:href="#TimesNewRomanPSMT-62" transform="translate(252.783203 0)"/>
     <use xlink:href="#TimesNewRomanPSMT-20" transform="translate(302.783203 0)"/>
     <use xlink:href="#TimesNewRomanPSMT-69" transform="translate(327.783203 0)"/>
     <use xlink:href="#TimesNewRomanPSMT-73" transform="translate(355.566406 0)"/>
     <use xlink:href="#TimesNewRomanPSMT-20" transform="translate(394.482422 0)"/>
     <use xlink:href="#TimesNewRomanPSMT-5b" transform="translate(419.482422 0)"/>
     <use xlink:href="#TimesNewRomanPSMT-30" transform="translate(452.783203 0)"/>
     <use xlink:href="#TimesNewRomanPSMT-2c" transform="translate(502.783203 0)"/>
     <use xlink:href="#TimesNewRomanPSMT-31" transform="translate(527.783203 0)"/>
     <use xlink:href="#TimesNewRomanPSMT-2c" transform="translate(577.783203 0)"/>
     <use xlink:href="#TimesNewRomanPSMT-35" transform="translate(602.783203 0)"/>
     <use xlink:href="#TimesNewRomanPSMT-2c" transform="translate(652.783203 0)"/>
     <use xlink:href="#TimesNewRomanPSMT-36" transform="translate(677.783203 0)"/>
     <use xlink:href="#TimesNewRomanPSMT-2c" transform="translate(727.783203 0)"/>
     <use xlink:href="#TimesNewRomanPSMT-37" transform="translate(752.783203 0)"/>
     <use xlink:href="#TimesNewRomanPSMT-5d" transform="translate(802.783203 0)"/>
    </g>
   </g>
  </g>
  <g id="axes_5">
   <g id="patch_62">
    <path d="M 662.151724 166.804138 
L 777.6 166.804138 
L 777.6 51.355862 
L 662.151724 51.355862 
z
" style="fill: #f0fff0"/>
   </g>
   <g id="patch_63">
    <path d="M 253.74994 105.775925 
Q 461.556837 147.337304 668.267411 105.995189 
" style="fill: none; stroke: #0000ff; stroke-linecap: round"/>
    <path d="M 663.952856 104.818492 
L 668.267411 105.995189 
L 664.737321 108.740815 
" style="fill: none; stroke: #0000ff; stroke-linecap: round"/>
   </g>
   <g id="patch_64">
    <path d="M 332.324363 155.279889 
Q 401.593328 141.426096 469.765971 155.060625 
" style="fill: none; stroke: #0000ff; stroke-linecap: round"/>
    <path d="M 466.235881 152.314999 
L 469.765971 155.060625 
L 465.451416 156.237322 
" style="fill: none; stroke: #0000ff; stroke-linecap: round"/>
   </g>
   <g id="patch_65">
    <path d="M 392.287872 105.775925 
Q 461.556837 119.629718 529.72948 105.995189 
" style="fill: none; stroke: #0000ff; stroke-linecap: round"/>
    <path d="M 525.414925 104.818492 
L 529.72948 105.995189 
L 526.19939 108.740815 
" style="fill: none; stroke: #0000ff; stroke-linecap: round"/>
   </g>
   <g id="patch_66">
    <path d="M 609.400225 147.048283 
Q 678.66919 160.902076 746.841833 147.267548 
" style="fill: none; stroke: #0000ff; stroke-linecap: round"/>
    <path d="M 742.527278 146.090851 
L 746.841833 147.267548 
L 743.311743 150.013174 
" style="fill: none; stroke: #0000ff; stroke-linecap: round"/>
   </g>
   <g id="matplotlib.axis_6">
    <g id="xtick_41">
     <g id="line2d_131">
      <path d="M 669.363734 166.804138 
L 669.363734 51.355862 
" clip-path="url(#p52859a68bd)" style="fill: none; stroke: #b0b0b0; stroke-width: 0.8; stroke-linecap: square"/>
     </g>
     <g id="line2d_132">
      <g>
       <use xlink:href="#mb5b278b628" x="669.363734" y="166.804138" style="stroke: #000000; stroke-width: 0.8"/>
      </g>
     </g>
     <g id="text_53">
      <!-- 0 -->
      <g transform="translate(666.863734 180.747888) scale(0.1 -0.1)">
       <use xlink:href="#TimesNewRomanPSMT-30"/>
      </g>
     </g>
    </g>
    <g id="xtick_42">
     <g id="line2d_133">
      <path d="M 680.588651 166.804138 
L 680.588651 51.355862 
" clip-path="url(#p52859a68bd)" style="fill: none; stroke: #b0b0b0; stroke-width: 0.8; stroke-linecap: square"/>
     </g>
     <g id="line2d_134">
      <g>
       <use xlink:href="#mb5b278b628" x="680.588651" y="166.804138" style="stroke: #000000; stroke-width: 0.8"/>
      </g>
     </g>
     <g id="text_54">
      <!-- 1 -->
      <g transform="translate(678.088651 180.747888) scale(0.1 -0.1)">
       <use xlink:href="#TimesNewRomanPSMT-31"/>
      </g>
     </g>
    </g>
    <g id="xtick_43">
     <g id="line2d_135">
      <path d="M 691.813568 166.804138 
L 691.813568 51.355862 
" clip-path="url(#p52859a68bd)" style="fill: none; stroke: #b0b0b0; stroke-width: 0.8; stroke-linecap: square"/>
     </g>
     <g id="line2d_136">
      <g>
       <use xlink:href="#mb5b278b628" x="691.813568" y="166.804138" style="stroke: #000000; stroke-width: 0.8"/>
      </g>
     </g>
     <g id="text_55">
      <!-- 2 -->
      <g transform="translate(689.313568 180.747888) scale(0.1 -0.1)">
       <use xlink:href="#TimesNewRomanPSMT-32"/>
      </g>
     </g>
    </g>
    <g id="xtick_44">
     <g id="line2d_137">
      <path d="M 703.038486 166.804138 
L 703.038486 51.355862 
" clip-path="url(#p52859a68bd)" style="fill: none; stroke: #b0b0b0; stroke-width: 0.8; stroke-linecap: square"/>
     </g>
     <g id="line2d_138">
      <g>
       <use xlink:href="#mb5b278b628" x="703.038486" y="166.804138" style="stroke: #000000; stroke-width: 0.8"/>
      </g>
     </g>
     <g id="text_56">
      <!-- 3 -->
      <g transform="translate(700.538486 180.747888) scale(0.1 -0.1)">
       <use xlink:href="#TimesNewRomanPSMT-33"/>
      </g>
     </g>
    </g>
    <g id="xtick_45">
     <g id="line2d_139">
      <path d="M 714.263403 166.804138 
L 714.263403 51.355862 
" clip-path="url(#p52859a68bd)" style="fill: none; stroke: #b0b0b0; stroke-width: 0.8; stroke-linecap: square"/>
     </g>
     <g id="line2d_140">
      <g>
       <use xlink:href="#mb5b278b628" x="714.263403" y="166.804138" style="stroke: #000000; stroke-width: 0.8"/>
      </g>
     </g>
     <g id="text_57">
      <!-- 4 -->
      <g transform="translate(711.763403 180.747888) scale(0.1 -0.1)">
       <use xlink:href="#TimesNewRomanPSMT-34"/>
      </g>
     </g>
    </g>
    <g id="xtick_46">
     <g id="line2d_141">
      <path d="M 725.488321 166.804138 
L 725.488321 51.355862 
" clip-path="url(#p52859a68bd)" style="fill: none; stroke: #b0b0b0; stroke-width: 0.8; stroke-linecap: square"/>
     </g>
     <g id="line2d_142">
      <g>
       <use xlink:href="#mb5b278b628" x="725.488321" y="166.804138" style="stroke: #000000; stroke-width: 0.8"/>
      </g>
     </g>
     <g id="text_58">
      <!-- 5 -->
      <g transform="translate(722.988321 180.747888) scale(0.1 -0.1)">
       <use xlink:href="#TimesNewRomanPSMT-35"/>
      </g>
     </g>
    </g>
    <g id="xtick_47">
     <g id="line2d_143">
      <path d="M 736.713238 166.804138 
L 736.713238 51.355862 
" clip-path="url(#p52859a68bd)" style="fill: none; stroke: #b0b0b0; stroke-width: 0.8; stroke-linecap: square"/>
     </g>
     <g id="line2d_144">
      <g>
       <use xlink:href="#mb5b278b628" x="736.713238" y="166.804138" style="stroke: #000000; stroke-width: 0.8"/>
      </g>
     </g>
     <g id="text_59">
      <!-- 6 -->
      <g transform="translate(734.213238 180.747888) scale(0.1 -0.1)">
       <use xlink:href="#TimesNewRomanPSMT-36"/>
      </g>
     </g>
    </g>
    <g id="xtick_48">
     <g id="line2d_145">
      <path d="M 747.938156 166.804138 
L 747.938156 51.355862 
" clip-path="url(#p52859a68bd)" style="fill: none; stroke: #b0b0b0; stroke-width: 0.8; stroke-linecap: square"/>
     </g>
     <g id="line2d_146">
      <g>
       <use xlink:href="#mb5b278b628" x="747.938156" y="166.804138" style="stroke: #000000; stroke-width: 0.8"/>
      </g>
     </g>
     <g id="text_60">
      <!-- 7 -->
      <g transform="translate(745.438156 180.747888) scale(0.1 -0.1)">
       <use xlink:href="#TimesNewRomanPSMT-37"/>
      </g>
     </g>
    </g>
    <g id="xtick_49">
     <g id="line2d_147">
      <path d="M 759.163073 166.804138 
L 759.163073 51.355862 
" clip-path="url(#p52859a68bd)" style="fill: none; stroke: #b0b0b0; stroke-width: 0.8; stroke-linecap: square"/>
     </g>
     <g id="line2d_148">
      <g>
       <use xlink:href="#mb5b278b628" x="759.163073" y="166.804138" style="stroke: #000000; stroke-width: 0.8"/>
      </g>
     </g>
     <g id="text_61">
      <!-- 8 -->
      <g transform="translate(756.663073 180.747888) scale(0.1 -0.1)">
       <use xlink:href="#TimesNewRomanPSMT-38"/>
      </g>
     </g>
    </g>
    <g id="xtick_50">
     <g id="line2d_149">
      <path d="M 770.387991 166.804138 
L 770.387991 51.355862 
" clip-path="url(#p52859a68bd)" style="fill: none; stroke: #b0b0b0; stroke-width: 0.8; stroke-linecap: square"/>
     </g>
     <g id="line2d_150">
      <g>
       <use xlink:href="#mb5b278b628" x="770.387991" y="166.804138" style="stroke: #000000; stroke-width: 0.8"/>
      </g>
     </g>
     <g id="text_62">
      <!-- 9 -->
      <g transform="translate(767.887991 180.747888) scale(0.1 -0.1)">
       <use xlink:href="#TimesNewRomanPSMT-39"/>
      </g>
     </g>
    </g>
   </g>
   <g id="line2d_151">
    <path d="M 662.151724 156.30884 
L 777.6 156.30884 
" clip-path="url(#p52859a68bd)" style="fill: none; stroke: #000000; stroke-linecap: square"/>
   </g>
   <g id="patch_67">
    <path d="M 669.363734 59.130157 
L 671.328094 64.377806 
L 669.924979 64.377806 
L 669.924979 105.775925 
L 668.802488 105.775925 
L 668.802488 64.377806 
L 667.399373 64.377806 
z
" clip-path="url(#p52859a68bd)" style="opacity: 0.8; stroke: #000000; stroke-linejoin: miter"/>
   </g>
   <g id="patch_68">
    <path d="M 680.588651 145.451635 
L 682.553012 150.699284 
L 681.149897 150.699284 
L 681.149897 160.832675 
L 680.027405 160.832675 
L 680.027405 150.699284 
L 678.62429 150.699284 
z
" clip-path="url(#p52859a68bd)" style="opacity: 0.8; stroke: #000000; stroke-linejoin: miter"/>
   </g>
   <g id="patch_69">
    <path d="M 691.813568 134.268715 
L 693.777929 139.516364 
L 692.374814 139.516364 
L 692.374814 145.813542 
L 691.252323 145.813542 
L 691.252323 139.516364 
L 689.849208 139.516364 
z
" clip-path="url(#p52859a68bd)" style="opacity: 0.8; stroke: #000000; stroke-linejoin: miter"/>
   </g>
   <g id="patch_70">
    <path clip-path="url(#p52859a68bd)" style="opacity: 0.8; stroke: #000000; stroke-linejoin: miter"/>
   </g>
   <g id="patch_71">
    <path clip-path="url(#p52859a68bd)" style="opacity: 0.8; stroke: #000000; stroke-linejoin: miter"/>
   </g>
   <g id="patch_72">
    <path d="M 725.488321 145.635656 
L 727.452681 150.883305 
L 726.049567 150.883305 
L 726.049567 161.645432 
L 724.927075 161.645432 
L 724.927075 150.883305 
L 723.52396 150.883305 
z
" clip-path="url(#p52859a68bd)" style="opacity: 0.8; stroke: #000000; stroke-linejoin: miter"/>
   </g>
   <g id="patch_73">
    <path d="M 736.713238 146.525088 
L 738.677599 151.772737 
L 737.274484 151.772737 
L 737.274484 158.087704 
L 736.151992 158.087704 
L 736.151992 151.772737 
L 734.748878 151.772737 
z
" clip-path="url(#p52859a68bd)" style="opacity: 0.8; stroke: #000000; stroke-linejoin: miter"/>
   </g>
   <g id="patch_74">
    <path d="M 747.938156 135.729825 
L 749.902516 140.977474 
L 748.499402 140.977474 
L 748.499402 147.048283 
L 747.37691 147.048283 
L 747.37691 140.977474 
L 745.973795 140.977474 
z
" clip-path="url(#p52859a68bd)" style="opacity: 0.8; stroke: #000000; stroke-linejoin: miter"/>
   </g>
   <g id="patch_75">
    <path d="M 759.163073 137.787726 
L 761.127434 143.035375 
L 759.724319 143.035375 
L 759.724319 147.048283 
L 758.601827 147.048283 
L 758.601827 143.035375 
L 757.198713 143.035375 
z
" clip-path="url(#p52859a68bd)" style="opacity: 0.8; stroke: #000000; stroke-linejoin: miter"/>
   </g>
   <g id="patch_76">
    <path d="M 770.387991 130.779737 
L 772.352351 136.027386 
L 770.949236 136.027386 
L 770.949236 144.962572 
L 769.826745 144.962572 
L 769.826745 136.027386 
L 768.42363 136.027386 
z
" clip-path="url(#p52859a68bd)" style="opacity: 0.8; stroke: #000000; stroke-linejoin: miter"/>
   </g>
   <g id="patch_77">
    <path d="M 662.151724 166.804138 
L 662.151724 51.355862 
" style="fill: none; stroke: #000000; stroke-width: 0.8; stroke-linejoin: miter; stroke-linecap: square"/>
   </g>
   <g id="patch_78">
    <path d="M 777.6 166.804138 
L 777.6 51.355862 
" style="fill: none; stroke: #000000; stroke-width: 0.8; stroke-linejoin: miter; stroke-linecap: square"/>
   </g>
   <g id="patch_79">
    <path d="M 662.151724 166.804138 
L 777.6 166.804138 
" style="fill: none; stroke: #000000; stroke-width: 0.8; stroke-linejoin: miter; stroke-linecap: square"/>
   </g>
   <g id="patch_80">
    <path d="M 662.151724 51.355862 
L 777.6 51.355862 
" style="fill: none; stroke: #000000; stroke-width: 0.8; stroke-linejoin: miter; stroke-linecap: square"/>
   </g>
   <g id="line2d_152">
    <g clip-path="url(#p52859a68bd)">
     <use xlink:href="#m6b80bdc41f" x="669.363734" y="105.775925" style="fill: #ffffff; stroke: #000000"/>
    </g>
   </g>
   <g id="line2d_153">
    <g clip-path="url(#p52859a68bd)">
     <use xlink:href="#m6b80bdc41f" x="680.588651" y="160.832675" style="fill: #ffffff; stroke: #000000"/>
    </g>
   </g>
   <g id="line2d_154">
    <g clip-path="url(#p52859a68bd)">
     <use xlink:href="#m21d7c2ae6d" x="691.813568" y="145.813542" style="stroke: #000000"/>
    </g>
   </g>
   <g id="line2d_155">
    <g clip-path="url(#p52859a68bd)">
     <use xlink:href="#m21d7c2ae6d" x="703.038486" y="146.1521" style="stroke: #000000"/>
    </g>
   </g>
   <g id="line2d_156">
    <g clip-path="url(#p52859a68bd)">
     <use xlink:href="#m21d7c2ae6d" x="714.263403" y="156.30884" style="stroke: #000000"/>
    </g>
   </g>
   <g id="line2d_157">
    <g clip-path="url(#p52859a68bd)">
     <use xlink:href="#m6b80bdc41f" x="725.488321" y="161.645432" style="fill: #ffffff; stroke: #000000"/>
    </g>
   </g>
   <g id="line2d_158">
    <g clip-path="url(#p52859a68bd)">
     <use xlink:href="#m6b80bdc41f" x="736.713238" y="158.087704" style="fill: #ffffff; stroke: #000000"/>
    </g>
   </g>
   <g id="line2d_159">
    <g clip-path="url(#p52859a68bd)">
     <use xlink:href="#m21d7c2ae6d" x="747.938156" y="147.048283" style="stroke: #000000"/>
    </g>
   </g>
   <g id="line2d_160">
    <g clip-path="url(#p52859a68bd)">
     <use xlink:href="#m21d7c2ae6d" x="759.163073" y="147.048283" style="stroke: #000000"/>
    </g>
   </g>
   <g id="line2d_161">
    <g clip-path="url(#p52859a68bd)">
     <use xlink:href="#m21d7c2ae6d" x="770.387991" y="144.962572" style="stroke: #000000"/>
    </g>
   </g>
   <g id="text_63">
    <!-- e) Club is [0,1,5,6] -->
    <g transform="translate(674.547737 45.355862) scale(0.12 -0.12)">
     <use xlink:href="#TimesNewRomanPSMT-65"/>
     <use xlink:href="#TimesNewRomanPSMT-29" transform="translate(44.384766 0)"/>
     <use xlink:href="#TimesNewRomanPSMT-20" transform="translate(77.685547 0)"/>
     <use xlink:href="#TimesNewRomanPSMT-43" transform="translate(102.685547 0)"/>
     <use xlink:href="#TimesNewRomanPSMT-6c" transform="translate(169.384766 0)"/>
     <use xlink:href="#TimesNewRomanPSMT-75" transform="translate(197.167969 0)"/>
     <use xlink:href="#TimesNewRomanPSMT-62" transform="translate(247.167969 0)"/>
     <use xlink:href="#TimesNewRomanPSMT-20" transform="translate(297.167969 0)"/>
     <use xlink:href="#TimesNewRomanPSMT-69" transform="translate(322.167969 0)"/>
     <use xlink:href="#TimesNewRomanPSMT-73" transform="translate(349.951172 0)"/>
     <use xlink:href="#TimesNewRomanPSMT-20" transform="translate(388.867188 0)"/>
     <use xlink:href="#TimesNewRomanPSMT-5b" transform="translate(413.867188 0)"/>
     <use xlink:href="#TimesNewRomanPSMT-30" transform="translate(447.167969 0)"/>
     <use xlink:href="#TimesNewRomanPSMT-2c" transform="translate(497.167969 0)"/>
     <use xlink:href="#TimesNewRomanPSMT-31" transform="translate(522.167969 0)"/>
     <use xlink:href="#TimesNewRomanPSMT-2c" transform="translate(572.167969 0)"/>
     <use xlink:href="#TimesNewRomanPSMT-35" transform="translate(597.167969 0)"/>
     <use xlink:href="#TimesNewRomanPSMT-2c" transform="translate(647.167969 0)"/>
     <use xlink:href="#TimesNewRomanPSMT-36" transform="translate(672.167969 0)"/>
     <use xlink:href="#TimesNewRomanPSMT-5d" transform="translate(722.167969 0)"/>
    </g>
   </g>
  </g>
 </g>
 <defs>
  <clipPath id="p4ee81fc845">
   <rect x="108" y="51.355862" width="115.448276" height="115.448276"/>
  </clipPath>
  <clipPath id="pf5aab00201">
   <rect x="246.537931" y="51.355862" width="115.448276" height="115.448276"/>
  </clipPath>
  <clipPath id="pf92af2214c">
   <rect x="385.075862" y="51.355862" width="115.448276" height="115.448276"/>
  </clipPath>
  <clipPath id="pb7d2530564">
   <rect x="523.613793" y="51.355862" width="115.448276" height="115.448276"/>
  </clipPath>
  <clipPath id="p52859a68bd">
   <rect x="662.151724" y="51.355862" width="115.448276" height="115.448276"/>
  </clipPath>
 </defs>
</svg>
